<svg width="510" height="138" viewBox="0 0 510 138" fill="none" xmlns="http://www.w3.org/2000/svg"><mask id="mask0_827:9312" style="mask-type:alpha" maskUnits="userSpaceOnUse" x="0" y="15" width="510" height="97"><path d="M0 15h509.546v96.223H0V15z" fill="#fff"/></mask><g mask="url(#mask0_827:9312)"><path fill-rule="evenodd" clip-rule="evenodd" d="M273.973 47.55c-8.148 0-14.637 3.149-18.77 9.105l-.578.834-.565-.841c-4.003-5.952-10.232-9.098-18.01-9.098-7.445 0-13.503 2.889-17.524 8.356l-.542.673-3.338-7.506-18.71-.025 5.021 11.291v49.36h18.201V74.683c0-7.523 3.921-12.018 10.489-12.018 6.489 0 10.362 4.495 10.362 12.018V109.7h18.201V74.683c0-7.523 3.921-12.018 10.486-12.018 6.489 0 10.364 4.495 10.364 12.018V109.7h18.199V72.141c0-14.94-9.139-24.591-23.286-24.591zm76.803 25.548-.173-.845c-1.411-6.88-6.499-10.984-13.615-10.984-7.192 0-12.328 4.105-13.737 10.981l-.173.848h27.698zm15.781-2.147v15.233h-43.064l.275.91c1.386 4.554 4.67 7.719 9.498 9.286 3.997 1.172 9.358 1.118 13.37-.123 3.644-1.128 5.789-2.344 5.789-2.344l9.485 10.777c-6.023 4.097-14.135 6.533-21.783 6.533-20.237 0-33.834-12.795-33.834-31.837 0-18.445 12.909-31.836 30.695-31.836 15.376 0 26.147 8.525 29.569 23.4zm-194.038 8.433c0-8.729-6.155-15.065-14.631-15.065-8.479 0-14.634 6.336-14.634 15.067s6.155 15.068 14.634 15.068c8.476 0 14.631-6.337 14.631-15.068v-.002zm18.199 0c0 9.006-3.516 17.207-9.895 23.092-6.118 5.641-14.263 8.747-22.935 8.747-8.675 0-16.82-3.106-22.937-8.747-6.382-5.885-9.896-14.086-9.896-23.09 0-9.006 3.516-17.207 9.896-23.092 6.117-5.638 14.262-8.744 22.937-8.744 8.672 0 16.815 3.106 22.935 8.744 6.382 5.885 9.895 14.088 9.895 23.092v-.002zm-87.265-45.307h-18.2v14.999H76.59v15.118h8.662v25.49c0 14.03 6.553 20.018 21.911 20.018h8.72V94.566l-5.207-.082c-4.927 0-7.223-2.616-7.223-8.237V64.19h12.675l6.662-15.118h-19.337V34.075v.002zM47.464 78.75c-.387-8.374-6.54-14.43-14.631-14.43-8.48 0-14.635 6.336-14.635 15.067s6.156 15.068 14.635 15.068c8.096 0 14.249-6.056 14.631-14.4v-1.305zm18.199 17.763 3.551 13.187H52.822l-2.326-8.446-.843.912c-5.401 5.842-12.713 9.058-20.586 9.058-7.658 0-14.858-3.096-20.27-8.716C3.124 96.617 0 88.405 0 79.387c0-9.02 3.124-17.231 8.797-23.121 5.412-5.62 12.612-8.716 20.267-8.716 7.509 0 14.512 2.904 19.725 8.18l1.187 1.203v-7.86h15.687v47.439zm443.883 13.878h-20.418l-11.661-19.56c-7.793 5.376-15.897 8.082-24.269 8.082-.332 0-.663-.003-.994-.013-9.075-.229-17.197-3.681-24.117-8.384L416.24 110.39h-20.42L452.686 15l21.915 36.718s-2.688 2.334-6.007 4.59c-2.418 1.642-7.896 5.16-12.629-1.625l-3.282-5.429-15.549 26.084c4.767 3.37 10.064 5.743 15.552 5.872 9.375.22 18.904-5.954 28.417-18.371h21.266c-3.784 6.079-7.674 11.396-11.664 15.946l18.841 31.602v.003z" fill="#000"/></g></svg>