<svg id="svg" version="1.1" xmlns="http://www.w3.org/2000/svg" xmlns:xlink="http://www.w3.org/1999/xlink" width="400" height="69.52380952380952" viewBox="0, 0, 400,69.52380952380952"><g id="svgg"><path id="path0" d="M0.000 10.083 L 0.000 18.333 10.577 18.333 C 18.832 18.333,21.193 18.288,21.331 18.125 C 21.429 18.010,21.750 17.542,22.044 17.083 C 22.961 15.657,29.963 8.794,30.832 8.469 C 31.000 8.406,31.203 8.238,31.283 8.096 C 31.362 7.954,31.781 7.614,32.214 7.339 C 32.646 7.065,33.000 6.764,33.000 6.670 C 33.000 6.577,33.070 6.500,33.156 6.500 C 33.375 6.500,35.000 5.474,35.000 5.335 C 35.000 5.272,35.407 5.022,35.903 4.778 C 36.400 4.535,36.917 4.226,37.052 4.091 C 37.186 3.957,37.803 3.600,38.422 3.298 C 40.412 2.330,40.500 2.277,40.500 2.053 C 40.500 1.872,36.908 1.833,20.250 1.833 L 0.000 1.833 0.000 10.083 M44.333 2.209 C 43.921 2.406,43.558 2.628,43.528 2.701 C 43.497 2.774,43.402 2.833,43.316 2.833 C 43.070 2.833,40.943 3.889,40.677 4.143 C 40.545 4.269,40.128 4.505,39.750 4.667 C 39.372 4.829,38.952 5.064,38.816 5.189 C 38.559 5.427,38.166 5.669,37.125 6.227 C 36.781 6.411,36.500 6.621,36.500 6.694 C 36.500 6.767,36.197 6.981,35.826 7.170 C 35.456 7.359,35.022 7.642,34.862 7.799 C 34.703 7.955,34.237 8.304,33.828 8.575 C 33.418 8.845,33.008 9.145,32.917 9.242 C 32.825 9.339,32.487 9.630,32.167 9.888 C 30.405 11.304,26.679 14.915,25.417 16.428 C 24.234 17.846,22.966 19.569,22.818 19.956 C 22.739 20.164,22.609 20.333,22.527 20.333 C 22.446 20.333,22.143 20.778,21.854 21.320 C 21.564 21.863,21.271 22.332,21.202 22.362 C 21.133 22.392,20.818 22.960,20.504 23.625 C 20.189 24.290,19.872 24.833,19.799 24.833 C 19.726 24.833,19.667 24.979,19.667 25.157 C 19.667 25.335,19.597 25.523,19.513 25.575 C 19.428 25.628,19.229 26.062,19.070 26.540 C 18.911 27.019,18.616 27.749,18.415 28.163 C 18.214 28.578,17.876 29.554,17.664 30.333 C 17.453 31.113,17.220 31.829,17.147 31.925 C 17.075 32.020,16.780 32.995,16.492 34.091 C 16.204 35.187,15.908 36.158,15.835 36.250 C 15.761 36.342,15.449 37.654,15.142 39.167 C 14.835 40.679,14.537 41.954,14.480 42.000 C 14.360 42.097,13.559 47.508,13.395 49.333 C 13.333 50.021,13.228 50.621,13.162 50.667 C 13.095 50.712,12.914 52.175,12.758 53.917 C 12.603 55.658,12.450 57.245,12.419 57.442 C 12.387 57.639,12.268 59.401,12.153 61.358 C 12.038 63.315,11.891 64.954,11.826 65.000 C 11.761 65.046,11.680 65.983,11.646 67.083 L 11.583 69.083 20.625 69.126 L 29.667 69.170 29.667 65.626 C 29.667 60.049,30.329 48.565,30.664 48.333 C 30.730 48.288,30.834 47.725,30.896 47.083 C 31.002 45.978,31.282 44.080,31.693 41.667 C 31.794 41.071,31.935 40.508,32.005 40.417 C 32.075 40.325,32.289 39.500,32.481 38.583 C 32.890 36.623,33.162 35.616,33.313 35.500 C 33.373 35.454,33.599 34.857,33.815 34.173 C 34.157 33.094,35.704 29.904,36.001 29.667 C 36.222 29.490,37.167 28.014,37.167 27.845 C 37.167 27.747,37.239 27.667,37.326 27.667 C 37.414 27.667,37.685 27.327,37.928 26.913 C 38.171 26.498,38.511 26.083,38.685 25.990 C 38.858 25.898,39.000 25.718,39.000 25.592 C 39.000 25.127,43.194 21.117,44.256 20.566 C 44.486 20.447,44.791 20.233,44.933 20.091 C 45.075 19.949,45.298 19.833,45.429 19.833 C 45.632 19.833,45.667 18.522,45.667 10.833 C 45.667 0.677,45.795 1.509,44.333 2.209 M378.611 11.611 C 378.424 11.799,378.479 35.000,378.667 35.000 C 378.776 35.000,378.833 30.972,378.833 23.250 C 378.833 16.787,378.808 11.500,378.778 11.500 C 378.747 11.500,378.672 11.550,378.611 11.611 M96.167 34.617 C 96.121 38.852,96.140 42.260,96.210 42.190 C 96.280 42.120,96.317 38.655,96.293 34.490 L 96.250 26.917 96.167 34.617 " stroke="none" fill="#e82c18" fill-rule="evenodd"></path><path id="path1" d="M362.583 0.199 C 362.033 0.286,361.433 0.380,361.250 0.407 C 361.067 0.435,360.917 0.471,360.917 0.487 C 360.917 0.503,360.542 0.549,360.084 0.589 C 359.626 0.630,359.229 0.731,359.201 0.814 C 359.173 0.897,359.004 0.926,358.825 0.880 C 358.646 0.833,358.500 0.878,358.500 0.981 C 358.500 1.083,358.313 1.167,358.083 1.167 C 357.854 1.167,357.667 1.229,357.667 1.306 C 357.667 1.382,357.573 1.445,357.458 1.445 C 357.089 1.445,354.920 2.211,354.810 2.379 C 354.752 2.469,354.621 2.491,354.519 2.428 C 354.417 2.365,354.333 2.387,354.333 2.477 C 354.333 2.567,354.071 2.727,353.750 2.833 C 353.429 2.939,353.167 3.095,353.167 3.180 C 353.167 3.264,353.110 3.318,353.042 3.300 C 352.805 3.238,352.133 3.534,351.419 4.016 C 351.024 4.282,350.619 4.500,350.517 4.500 C 350.416 4.500,350.186 4.647,350.006 4.828 C 349.825 5.008,349.357 5.358,348.964 5.605 C 348.571 5.852,348.159 6.174,348.047 6.319 C 347.884 6.531,347.843 6.181,347.839 4.542 L 347.833 2.500 338.250 2.500 L 328.666 2.500 328.708 35.958 L 328.750 69.417 338.292 69.460 L 347.833 69.503 347.846 45.876 C 347.853 32.882,347.893 22.100,347.936 21.917 C 348.071 21.326,348.097 21.259,348.407 20.667 C 349.815 17.979,352.250 16.705,355.095 17.168 C 356.403 17.381,358.168 18.740,358.368 19.689 C 358.395 19.814,358.474 19.959,358.544 20.011 C 359.137 20.452,359.170 21.927,359.126 45.995 L 359.083 69.500 368.707 69.500 L 378.331 69.500 378.374 40.417 C 378.397 24.421,378.373 11.333,378.320 11.333 C 378.267 11.333,378.093 10.752,377.935 10.042 C 377.776 9.331,377.564 8.563,377.465 8.333 C 377.365 8.104,377.266 7.835,377.244 7.735 C 377.081 6.995,375.514 4.719,374.375 3.568 C 374.260 3.452,374.167 3.264,374.167 3.151 C 374.167 3.037,374.120 2.991,374.062 3.049 C 374.005 3.106,373.499 2.828,372.937 2.431 C 371.850 1.661,370.833 1.094,370.833 1.257 C 370.833 1.311,370.619 1.203,370.356 1.016 C 370.094 0.829,369.833 0.722,369.777 0.779 C 369.721 0.835,369.568 0.793,369.438 0.685 C 369.308 0.577,369.138 0.503,369.059 0.521 C 368.981 0.538,368.804 0.511,368.667 0.459 C 367.496 0.017,364.529 -0.109,362.583 0.199 M109.333 36.042 L 109.333 69.500 126.750 69.500 L 144.167 69.500 144.164 62.625 C 144.163 58.844,144.103 55.657,144.030 55.543 C 143.930 55.385,142.130 55.327,136.325 55.293 L 128.750 55.250 128.706 49.127 L 128.663 43.003 136.373 42.960 L 144.083 42.917 144.127 36.708 L 144.171 30.500 136.606 30.500 C 130.412 30.500,129.007 30.459,128.852 30.272 C 128.716 30.109,128.675 28.231,128.706 23.647 L 128.750 17.250 136.458 17.207 L 144.167 17.163 144.167 9.873 L 144.167 2.583 126.750 2.583 L 109.333 2.583 109.333 36.042 M151.833 36.042 L 151.833 69.500 169.496 69.500 L 187.160 69.500 187.205 62.423 L 187.250 55.346 179.344 55.336 C 174.996 55.331,171.413 55.302,171.382 55.271 C 171.282 55.171,171.322 35.320,171.422 35.157 C 171.476 35.071,171.441 35.000,171.344 35.000 C 171.222 35.000,171.155 30.025,171.126 18.831 L 171.083 2.661 161.458 2.622 L 151.833 2.583 151.833 36.042 M192.228 2.750 C 192.194 2.842,192.147 17.898,192.125 36.208 L 192.083 69.500 209.625 69.500 L 227.167 69.500 227.167 62.417 L 227.167 55.333 219.500 55.333 L 211.833 55.333 211.833 49.168 L 211.833 43.003 219.458 42.960 L 227.083 42.917 227.119 36.544 C 227.139 33.038,227.102 30.178,227.036 30.188 C 226.970 30.198,223.523 30.197,219.375 30.186 L 211.833 30.167 211.833 23.667 L 211.833 17.167 219.500 17.167 L 227.167 17.167 227.167 9.875 L 227.167 2.583 209.729 2.583 C 198.256 2.583,192.270 2.640,192.228 2.750 M231.538 2.808 C 231.490 2.932,231.548 3.093,231.667 3.167 C 231.807 3.253,231.846 3.477,231.780 3.810 C 231.724 4.091,231.742 4.360,231.821 4.409 C 231.944 4.485,232.113 5.308,232.181 6.167 C 232.192 6.304,232.312 7.242,232.447 8.250 C 232.582 9.258,232.703 10.215,232.715 10.375 C 232.727 10.535,232.790 10.667,232.853 10.667 C 232.917 10.667,232.929 10.817,232.881 11.001 C 232.833 11.185,232.869 11.428,232.960 11.543 C 233.051 11.657,233.177 11.938,233.241 12.167 C 233.328 12.485,233.314 12.524,233.180 12.333 C 232.927 11.972,232.935 12.567,233.190 13.043 C 233.294 13.238,233.397 13.664,233.419 13.990 C 233.441 14.317,233.474 14.583,233.493 14.583 C 233.529 14.583,233.548 14.727,233.751 16.583 C 233.821 17.225,233.925 17.787,233.981 17.833 C 234.094 17.925,234.174 18.745,234.165 19.708 C 234.161 20.073,234.239 20.333,234.351 20.333 C 234.478 20.333,234.511 20.532,234.449 20.917 C 234.397 21.238,234.414 21.500,234.487 21.500 C 234.560 21.500,234.704 22.231,234.808 23.125 C 234.911 24.019,235.035 24.938,235.082 25.167 C 235.129 25.396,235.216 26.086,235.274 26.699 C 235.341 27.407,235.463 27.847,235.606 27.902 C 235.731 27.950,235.828 28.123,235.822 28.286 C 235.811 28.546,235.792 28.542,235.667 28.250 C 235.529 27.929,235.523 27.930,235.512 28.282 C 235.505 28.483,235.576 28.694,235.669 28.752 C 235.763 28.809,235.799 28.921,235.750 29.000 C 235.701 29.079,235.737 29.191,235.831 29.248 C 235.924 29.306,235.999 29.442,235.997 29.552 C 235.996 29.671,235.930 29.650,235.833 29.500 C 235.692 29.281,235.671 29.283,235.669 29.514 C 235.668 29.659,235.723 29.834,235.792 29.903 C 235.860 29.972,235.926 30.097,235.938 30.181 C 235.949 30.265,235.977 30.371,236.000 30.417 C 236.023 30.462,236.061 30.706,236.085 30.958 C 236.142 31.571,236.327 32.996,236.407 33.441 C 236.563 34.307,236.728 35.768,236.692 35.958 C 236.670 36.073,236.719 36.167,236.801 36.167 C 236.883 36.167,236.920 36.467,236.883 36.833 C 236.841 37.256,236.885 37.500,237.004 37.500 C 237.109 37.500,237.171 37.701,237.144 37.958 C 237.117 38.211,237.143 38.493,237.200 38.586 C 237.257 38.678,237.352 39.203,237.411 39.752 C 237.470 40.301,237.673 41.875,237.862 43.250 C 238.051 44.625,238.225 45.900,238.248 46.083 C 238.271 46.267,238.375 46.398,238.478 46.375 C 238.582 46.352,238.667 46.488,238.667 46.677 C 238.667 46.868,238.591 46.973,238.496 46.914 C 238.277 46.779,238.358 47.179,238.604 47.445 C 238.707 47.557,238.764 47.889,238.730 48.183 C 238.695 48.476,238.749 48.815,238.848 48.934 C 238.947 49.054,238.982 49.227,238.926 49.319 C 238.829 49.476,239.098 51.453,239.291 52.000 C 239.340 52.137,239.363 52.494,239.344 52.792 C 239.324 53.090,239.382 53.333,239.473 53.333 C 239.567 53.333,239.605 53.619,239.561 54.000 C 239.511 54.437,239.551 54.667,239.677 54.667 C 239.801 54.667,239.831 54.821,239.761 55.099 C 239.701 55.337,239.724 55.618,239.811 55.724 C 239.898 55.830,240.012 56.292,240.064 56.750 C 240.296 58.792,240.366 59.342,240.582 60.804 C 240.709 61.658,240.911 62.479,241.031 62.627 C 241.214 62.853,241.212 62.874,241.020 62.759 C 240.779 62.614,240.782 62.625,241.163 63.387 C 241.347 63.755,241.355 63.927,241.202 64.171 C 241.095 64.344,241.070 64.524,241.148 64.572 C 241.304 64.668,241.512 65.751,241.555 66.694 C 241.571 67.030,241.634 67.357,241.697 67.419 C 241.759 67.481,241.770 67.638,241.721 67.766 C 241.671 67.895,241.701 68.000,241.787 68.000 C 241.872 68.000,241.909 68.226,241.869 68.502 C 241.714 69.557,240.979 69.500,254.680 69.500 L 267.152 69.500 267.256 68.875 C 267.314 68.531,267.462 67.875,267.585 67.417 C 267.709 66.958,267.849 66.246,267.898 65.833 C 267.946 65.421,268.030 64.896,268.084 64.667 C 268.258 63.938,268.353 63.452,268.604 62.000 C 268.848 60.586,268.952 60.083,269.000 60.083 C 269.049 60.083,269.175 59.414,269.237 58.833 C 269.271 58.512,269.339 58.137,269.388 58.000 C 269.437 57.862,269.569 57.094,269.682 56.292 C 269.795 55.490,269.931 54.833,269.985 54.833 C 270.039 54.833,270.090 54.665,270.099 54.458 C 270.107 54.252,270.161 53.858,270.220 53.583 C 270.396 52.753,270.483 52.279,270.571 51.667 C 270.618 51.346,270.853 50.071,271.095 48.833 C 271.337 47.596,271.554 46.471,271.578 46.333 C 271.601 46.196,271.671 45.966,271.733 45.822 C 271.795 45.679,271.870 45.229,271.899 44.822 C 271.929 44.416,272.006 43.960,272.071 43.809 C 272.136 43.658,272.172 43.433,272.152 43.309 C 272.131 43.185,272.156 42.971,272.208 42.833 C 272.260 42.696,272.388 42.058,272.492 41.417 C 272.677 40.284,272.767 39.839,272.846 39.667 C 272.867 39.621,272.898 39.508,272.915 39.417 C 272.991 39.007,273.412 36.468,273.591 35.347 C 273.640 35.034,273.727 34.704,273.783 34.614 C 273.838 34.524,273.908 34.182,273.937 33.855 C 273.967 33.527,274.113 32.771,274.263 32.173 C 274.413 31.575,274.554 30.823,274.577 30.501 C 274.600 30.180,274.675 29.785,274.744 29.625 C 274.813 29.465,274.827 29.223,274.775 29.089 C 274.723 28.954,274.740 28.807,274.813 28.763 C 274.885 28.718,275.041 28.022,275.159 27.216 C 275.277 26.410,275.419 25.675,275.474 25.583 C 275.529 25.492,275.580 25.342,275.587 25.250 C 275.594 25.158,275.652 24.821,275.717 24.500 C 275.850 23.833,275.905 23.515,276.260 21.347 C 276.402 20.484,276.586 19.650,276.670 19.494 C 276.753 19.338,276.777 19.166,276.722 19.111 C 276.667 19.056,276.707 18.802,276.810 18.547 C 276.914 18.292,277.045 17.746,277.101 17.333 C 277.157 16.921,277.236 16.358,277.277 16.083 C 277.318 15.808,277.372 15.396,277.398 15.167 C 277.424 14.938,277.490 14.637,277.545 14.500 C 277.600 14.362,277.730 13.688,277.833 13.000 C 277.937 12.313,278.066 11.637,278.119 11.500 C 278.262 11.135,278.284 11.032,278.492 9.750 C 278.903 7.215,279.314 5.017,279.489 4.417 C 279.569 4.142,279.683 3.637,279.741 3.295 L 279.847 2.673 272.324 2.628 C 268.187 2.604,264.743 2.621,264.671 2.667 C 264.600 2.712,264.405 3.688,264.239 4.833 C 264.073 5.979,263.885 6.954,263.820 7.000 C 263.755 7.046,263.725 7.290,263.753 7.542 C 263.781 7.794,263.745 8.000,263.672 8.000 C 263.505 8.000,263.159 10.286,263.279 10.599 C 263.329 10.728,263.296 10.833,263.206 10.833 C 263.052 10.833,262.763 12.430,262.753 13.333 C 262.751 13.563,262.688 13.844,262.614 13.960 C 262.539 14.075,262.524 14.313,262.580 14.489 C 262.643 14.688,262.584 14.863,262.425 14.952 C 262.249 15.050,262.151 15.413,262.114 16.100 C 262.083 16.652,262.015 17.174,261.962 17.260 C 261.909 17.346,261.814 17.792,261.751 18.250 C 261.689 18.708,261.606 19.271,261.568 19.500 C 261.530 19.729,261.457 20.254,261.406 20.667 C 261.355 21.079,261.246 21.441,261.163 21.470 C 261.081 21.499,261.057 21.743,261.111 22.012 C 261.172 22.318,261.139 22.500,261.023 22.500 C 260.921 22.500,260.841 22.669,260.846 22.875 C 260.851 23.081,260.740 23.801,260.600 24.473 C 260.459 25.146,260.299 26.084,260.243 26.557 C 260.187 27.030,260.112 27.668,260.077 27.976 C 260.041 28.284,259.931 28.633,259.832 28.752 C 259.702 28.909,259.712 28.992,259.868 29.057 C 260.027 29.123,260.002 29.211,259.771 29.398 C 259.551 29.575,259.481 29.798,259.534 30.154 C 259.574 30.432,259.564 30.679,259.512 30.704 C 259.381 30.766,258.480 35.780,258.478 36.458 C 258.477 36.756,258.419 37.000,258.348 37.000 C 258.236 37.000,258.115 37.672,257.734 40.417 C 257.683 40.783,257.607 41.271,257.565 41.500 C 257.523 41.729,257.471 42.112,257.451 42.352 C 257.430 42.591,257.306 42.915,257.176 43.073 C 256.973 43.317,256.972 43.380,257.171 43.503 C 257.365 43.623,257.357 43.698,257.118 43.961 C 256.806 44.306,256.723 44.921,257.012 44.742 C 257.111 44.681,257.096 44.784,256.979 44.972 C 256.749 45.339,256.420 45.282,256.567 44.900 C 256.616 44.772,256.594 44.667,256.518 44.667 C 256.402 44.667,256.033 42.824,255.983 42.000 C 255.950 41.436,255.559 39.083,255.499 39.083 C 255.484 39.083,255.447 38.933,255.417 38.750 C 255.387 38.567,255.242 37.779,255.096 37.000 C 254.949 36.221,254.801 35.358,254.767 35.083 C 254.732 34.808,254.686 34.583,254.664 34.583 C 254.642 34.583,254.605 34.433,254.583 34.250 C 254.560 34.067,254.490 33.504,254.428 33.000 C 254.366 32.496,254.237 31.835,254.141 31.530 C 254.045 31.226,254.011 30.933,254.065 30.879 C 254.119 30.825,254.098 30.699,254.018 30.599 C 253.938 30.499,253.780 29.742,253.667 28.917 C 253.553 28.092,253.386 27.324,253.295 27.210 C 253.204 27.097,253.172 26.894,253.223 26.760 C 253.275 26.625,253.237 26.043,253.139 25.466 C 253.042 24.889,252.959 24.304,252.956 24.167 C 252.952 24.029,252.901 23.879,252.841 23.833 C 252.782 23.787,252.605 23.000,252.448 22.083 C 252.292 21.167,252.124 20.229,252.076 20.000 C 252.028 19.771,251.951 19.208,251.906 18.750 C 251.860 18.292,251.751 17.702,251.663 17.439 C 251.576 17.177,251.541 16.902,251.587 16.828 C 251.632 16.755,251.593 16.495,251.500 16.251 C 251.359 15.878,251.114 14.440,250.240 8.833 C 250.190 8.512,250.082 8.025,250.000 7.750 C 249.918 7.475,249.804 6.875,249.747 6.417 C 249.689 5.958,249.598 5.471,249.544 5.333 C 249.490 5.196,249.417 4.858,249.381 4.583 C 249.233 3.446,249.209 3.235,249.188 2.917 C 249.160 2.486,231.703 2.379,231.538 2.808 M284.167 36.042 L 284.167 69.500 301.750 69.500 L 319.333 69.500 319.333 62.417 L 319.333 55.333 311.583 55.333 L 303.833 55.333 303.833 49.167 L 303.833 43.000 311.585 43.000 L 319.337 43.000 319.294 36.625 L 319.250 30.250 311.542 30.207 L 303.833 30.163 303.833 23.665 L 303.833 17.167 311.585 17.167 L 319.337 17.167 319.293 9.915 L 319.250 2.664 301.708 2.623 L 284.167 2.583 284.167 36.042 M62.000 30.989 C 62.000 33.680,62.061 35.185,62.173 35.254 C 62.284 35.322,62.339 36.534,62.326 38.639 L 62.306 41.917 79.148 41.959 L 95.990 42.002 95.953 34.459 L 95.917 26.917 78.958 26.874 L 62.000 26.832 62.000 30.989 M132.803 30.292 C 134.941 30.318,138.391 30.318,140.470 30.291 C 142.549 30.265,140.800 30.243,136.583 30.243 C 132.367 30.244,130.666 30.265,132.803 30.292 M223.220 30.458 C 221.186 30.485,217.811 30.485,215.720 30.458 C 213.628 30.432,215.292 30.410,219.417 30.410 C 223.542 30.410,225.253 30.432,223.220 30.458 M315.458 30.458 C 313.373 30.485,309.960 30.485,307.875 30.458 C 305.790 30.432,307.496 30.410,311.667 30.410 C 315.837 30.410,317.544 30.432,315.458 30.458 M389.022 52.746 C 388.530 52.864,388.062 53.064,387.983 53.189 C 387.903 53.314,387.837 53.359,387.836 53.289 C 387.830 52.994,384.500 55.579,384.500 55.878 C 384.500 55.949,384.312 56.305,384.081 56.670 C 383.851 57.035,383.706 57.333,383.760 57.333 C 383.813 57.333,383.751 57.440,383.621 57.570 C 382.801 58.390,382.833 63.702,383.663 64.500 C 383.711 64.546,383.970 64.996,384.240 65.500 C 385.033 66.985,385.483 67.368,387.750 68.485 C 390.274 69.729,392.035 69.820,394.417 68.829 C 395.150 68.524,395.775 68.213,395.806 68.137 C 395.836 68.062,395.961 68.000,396.083 68.000 C 396.703 68.000,399.000 65.174,399.000 64.412 C 399.000 64.277,399.117 64.167,399.260 64.167 C 399.403 64.167,399.484 64.108,399.440 64.037 C 399.396 63.966,399.501 63.497,399.674 62.995 C 400.134 61.664,400.092 59.887,399.563 58.333 C 399.517 58.196,399.488 58.058,399.500 58.026 C 399.512 57.995,399.404 57.883,399.259 57.776 C 399.114 57.670,398.965 57.422,398.927 57.225 C 398.832 56.726,398.406 55.935,398.094 55.676 C 397.951 55.557,397.833 55.388,397.833 55.301 C 397.833 55.214,397.721 55.030,397.583 54.893 C 397.446 54.755,397.333 54.700,397.333 54.771 C 397.333 54.841,397.090 54.667,396.792 54.384 C 395.087 52.763,391.815 52.073,389.022 52.746 M392.667 54.177 C 392.667 54.274,392.737 54.310,392.822 54.257 C 393.466 53.859,397.263 56.577,397.436 57.560 C 397.454 57.665,397.599 58.050,397.756 58.417 C 399.050 61.422,397.515 65.723,394.691 67.005 C 394.265 67.199,393.804 67.412,393.667 67.480 C 393.529 67.547,392.779 67.624,392.000 67.650 C 391.221 67.677,390.538 67.773,390.482 67.863 C 390.424 67.956,390.335 67.912,390.278 67.764 C 390.220 67.611,389.983 67.500,389.716 67.500 C 389.022 67.500,387.582 66.701,386.575 65.757 C 383.845 63.197,383.887 58.451,386.662 55.971 C 387.566 55.163,387.878 54.908,388.000 54.877 C 388.046 54.866,388.308 54.767,388.583 54.657 C 389.799 54.173,390.490 54.022,391.542 54.011 C 392.229 54.004,392.667 54.069,392.667 54.177 M388.167 60.658 L 388.167 65.000 388.661 65.000 L 389.156 65.000 389.203 63.042 L 389.250 61.083 389.909 61.030 C 390.988 60.942,391.942 61.290,392.177 61.858 C 392.288 62.127,392.536 62.456,392.727 62.590 C 392.918 62.724,393.017 62.833,392.947 62.833 C 392.877 62.833,392.961 62.985,393.134 63.169 C 393.306 63.354,393.549 63.711,393.674 63.961 C 394.095 64.802,394.355 65.000,395.037 65.000 C 395.759 65.000,395.805 64.638,395.165 63.998 C 394.999 63.832,394.739 63.435,394.587 63.115 C 394.435 62.795,393.978 62.221,393.570 61.838 C 392.760 61.079,392.747 60.926,393.480 60.779 C 394.903 60.494,395.518 58.487,394.608 57.098 C 394.179 56.444,393.854 56.378,390.875 56.346 L 388.167 56.317 388.167 60.658 M392.857 57.337 C 393.694 57.570,394.114 58.411,393.811 59.249 C 393.696 59.566,393.567 59.789,393.523 59.745 C 393.479 59.702,393.313 59.784,393.154 59.928 C 392.835 60.217,390.340 60.455,389.593 60.267 C 389.175 60.162,389.167 60.130,389.167 58.663 L 389.167 57.167 390.708 57.168 C 391.556 57.168,392.523 57.244,392.857 57.337 " stroke="none" fill="#045c44" fill-rule="evenodd"></path><path id="path2" d="M108.833 21.917 C 108.833 34.972,108.890 41.667,109.000 41.667 C 109.110 41.667,109.167 35.028,109.167 22.083 L 109.167 2.500 126.750 2.500 L 144.333 2.500 144.333 9.823 C 144.333 14.526,144.393 17.184,144.500 17.250 C 144.610 17.318,144.667 14.780,144.667 9.760 L 144.667 2.167 126.750 2.167 L 108.833 2.167 108.833 21.917 M151.750 2.333 C 151.817 2.441,155.280 2.500,161.593 2.500 C 167.976 2.500,171.333 2.443,171.333 2.333 C 171.333 2.224,167.941 2.167,161.490 2.167 C 154.970 2.167,151.682 2.223,151.750 2.333 M192.083 2.333 C 192.151 2.443,198.224 2.500,209.760 2.500 C 221.364 2.500,227.333 2.443,227.333 2.333 C 227.333 2.223,221.330 2.167,209.657 2.167 C 197.915 2.167,192.015 2.223,192.083 2.333 M231.667 2.333 C 231.667 2.442,234.694 2.500,240.417 2.500 C 246.139 2.500,249.167 2.442,249.167 2.333 C 249.167 2.224,246.139 2.167,240.417 2.167 C 234.694 2.167,231.667 2.224,231.667 2.333 M264.833 2.333 C 264.833 2.442,267.472 2.500,272.417 2.500 C 277.361 2.500,280.000 2.442,280.000 2.333 C 280.000 2.225,277.361 2.167,272.417 2.167 C 267.472 2.167,264.833 2.225,264.833 2.333 M284.167 2.333 C 284.167 2.443,290.139 2.500,301.750 2.500 L 319.333 2.500 319.333 9.907 C 319.333 14.665,319.393 17.350,319.500 17.417 C 319.610 17.485,319.667 14.918,319.667 9.843 L 319.667 2.167 301.917 2.167 C 290.194 2.167,284.167 2.223,284.167 2.333 M171.413 20.917 C 171.413 28.708,171.433 31.871,171.458 27.946 C 171.483 24.020,171.483 17.645,171.458 13.779 C 171.433 9.913,171.413 13.125,171.413 20.917 M378.444 11.444 C 378.290 11.599,378.304 34.962,378.458 35.058 C 378.527 35.100,378.583 29.779,378.583 23.234 C 378.583 16.689,378.577 11.333,378.569 11.333 C 378.562 11.333,378.506 11.383,378.444 11.444 M96.000 34.458 L 96.000 42.083 79.000 42.040 C 67.592 42.011,62.000 42.052,62.000 42.166 C 62.000 42.279,67.606 42.321,79.042 42.292 L 96.083 42.250 96.167 34.542 C 96.212 30.302,96.194 26.833,96.125 26.833 C 96.056 26.833,96.000 30.265,96.000 34.458 M144.444 30.278 C 144.265 30.458,144.318 42.885,144.500 43.167 C 144.606 43.330,144.662 41.131,144.664 36.792 C 144.666 33.148,144.642 30.167,144.611 30.167 C 144.581 30.167,144.506 30.217,144.444 30.278 M319.333 36.760 C 319.333 41.113,319.390 43.318,319.500 43.250 C 319.606 43.184,319.667 40.804,319.667 36.657 C 319.667 32.441,319.608 30.167,319.500 30.167 C 319.392 30.167,319.333 32.476,319.333 36.760 M319.444 55.278 C 319.257 55.465,319.312 69.500,319.500 69.500 C 319.609 69.500,319.667 67.000,319.667 62.333 C 319.667 58.392,319.642 55.167,319.611 55.167 C 319.581 55.167,319.506 55.217,319.444 55.278 M144.333 62.417 C 144.333 67.028,144.392 69.500,144.500 69.500 C 144.608 69.500,144.667 67.028,144.667 62.417 C 144.667 57.806,144.608 55.333,144.500 55.333 C 144.392 55.333,144.333 57.806,144.333 62.417 " stroke="none" fill="#24745c" fill-rule="evenodd"></path><path id="path3" d="M171.246 20.917 C 171.246 28.708,171.267 31.871,171.292 27.946 C 171.317 24.020,171.317 17.645,171.292 13.779 C 171.267 9.913,171.246 13.125,171.246 20.917 M359.081 45.750 C 359.081 58.767,359.101 64.067,359.125 57.529 C 359.149 50.990,359.149 40.340,359.125 33.862 C 359.101 27.384,359.081 32.733,359.081 45.750 M132.803 30.458 C 134.941 30.485,138.391 30.485,140.470 30.458 C 142.549 30.432,140.800 30.410,136.583 30.410 C 132.367 30.410,130.666 30.432,132.803 30.458 M215.720 30.458 C 217.811 30.485,221.186 30.485,223.220 30.458 C 225.253 30.432,223.542 30.410,219.417 30.410 C 215.292 30.410,213.628 30.432,215.720 30.458 M307.875 30.458 C 309.960 30.485,313.373 30.485,315.458 30.458 C 317.544 30.432,315.837 30.410,311.667 30.410 C 307.496 30.410,305.790 30.432,307.875 30.458 M62.000 38.573 C 62.000 40.559,62.065 42.000,62.154 42.000 C 62.374 42.000,62.392 35.389,62.172 35.253 C 62.056 35.181,62.000 36.257,62.000 38.573 M390.042 60.288 C 390.385 60.324,390.948 60.324,391.292 60.288 C 391.635 60.252,391.354 60.223,390.667 60.223 C 389.979 60.223,389.698 60.252,390.042 60.288 " stroke="none" fill="#04624c" fill-rule="evenodd"></path><path id="path4" d="M369.419 0.671 C 369.478 0.765,369.613 0.827,369.721 0.809 C 370.056 0.751,371.812 1.626,372.931 2.408 C 373.519 2.819,374.000 3.079,374.000 2.986 C 374.000 2.735,373.286 2.128,372.558 1.758 C 372.205 1.579,371.804 1.346,371.667 1.240 C 371.102 0.802,369.204 0.322,369.419 0.671 M357.833 0.951 C 357.696 1.002,357.283 1.174,356.917 1.334 C 356.550 1.494,355.964 1.717,355.614 1.829 C 355.264 1.941,355.009 2.065,355.048 2.104 C 355.087 2.143,355.761 1.948,356.546 1.670 C 357.331 1.393,358.092 1.167,358.237 1.167 C 358.381 1.167,358.500 1.092,358.500 1.000 C 358.500 0.822,358.239 0.803,357.833 0.951 M171.250 2.366 C 171.038 2.599,171.125 6.833,171.343 6.833 C 171.434 6.833,171.500 5.853,171.500 4.500 C 171.500 3.217,171.481 2.170,171.458 2.175 C 171.435 2.180,171.342 2.266,171.250 2.366 M227.268 2.430 C 227.212 2.575,227.167 5.950,227.167 9.930 L 227.167 17.167 219.500 17.167 L 211.833 17.167 211.833 23.667 L 211.833 30.167 219.375 30.186 C 223.523 30.197,226.973 30.197,227.042 30.186 C 227.110 30.176,227.167 33.054,227.167 36.583 L 227.167 43.000 219.500 43.000 L 211.833 43.000 211.833 49.167 L 211.833 55.333 219.500 55.333 L 227.167 55.333 227.167 62.417 C 227.167 67.028,227.225 69.500,227.333 69.500 C 227.442 69.500,227.500 67.000,227.500 62.333 L 227.500 55.167 219.833 55.167 L 212.167 55.167 212.167 49.250 L 212.167 43.333 219.833 43.333 L 227.500 43.333 227.500 36.667 L 227.500 30.000 219.833 30.000 L 212.167 30.000 212.167 23.750 L 212.167 17.500 219.833 17.500 L 227.500 17.500 227.500 9.833 C 227.500 5.617,227.471 2.167,227.434 2.167 C 227.398 2.167,227.323 2.285,227.268 2.430 M249.167 2.508 C 249.168 3.015,249.777 6.845,250.001 7.750 C 250.201 8.559,250.210 8.613,250.839 12.649 C 251.116 14.426,251.385 15.949,251.436 16.031 C 251.487 16.114,251.555 16.422,251.587 16.716 C 251.716 17.920,252.749 23.756,252.845 23.833 C 252.903 23.879,252.953 24.029,252.957 24.167 C 252.971 24.629,253.848 30.247,253.946 30.500 C 253.999 30.637,254.063 30.900,254.088 31.083 C 254.114 31.267,254.248 32.054,254.388 32.833 C 254.528 33.612,254.682 34.475,254.732 34.750 C 254.833 35.316,255.335 38.243,255.418 38.750 C 255.448 38.933,255.484 39.083,255.499 39.083 C 255.553 39.083,255.675 39.803,256.023 42.167 C 256.219 43.496,256.444 44.608,256.524 44.639 C 256.604 44.670,256.626 44.764,256.575 44.848 C 256.523 44.931,256.532 45.083,256.594 45.184 C 256.769 45.468,257.004 44.988,256.843 44.676 C 256.770 44.533,256.575 43.479,256.409 42.333 C 256.244 41.188,256.060 40.212,256.000 40.167 C 255.940 40.121,255.760 39.146,255.600 38.000 C 255.232 35.362,254.838 33.180,254.654 32.750 C 254.575 32.567,254.280 30.804,253.998 28.833 C 253.716 26.863,253.419 25.100,253.338 24.917 C 253.258 24.733,253.073 23.758,252.928 22.750 C 252.503 19.790,252.099 17.667,251.961 17.667 C 251.891 17.667,251.836 17.535,251.838 17.375 C 251.848 16.814,250.767 9.749,250.658 9.667 C 250.598 9.621,250.499 9.171,250.437 8.667 C 249.995 5.070,249.165 1.042,249.167 2.508 M280.000 2.333 C 280.000 2.441,277.348 2.514,272.458 2.540 L 264.917 2.580 272.375 2.625 C 276.477 2.650,279.830 2.726,279.826 2.793 C 279.822 2.861,279.743 3.254,279.650 3.667 C 279.361 4.954,279.224 5.671,278.756 8.333 C 278.267 11.118,278.265 11.127,278.120 11.500 C 278.029 11.731,277.214 16.440,277.066 17.583 C 277.030 17.858,276.922 18.277,276.825 18.515 C 276.728 18.752,276.668 19.014,276.691 19.098 C 276.714 19.182,276.680 19.403,276.616 19.590 C 276.552 19.778,276.307 21.053,276.071 22.424 C 275.551 25.449,275.569 25.358,275.451 25.667 C 275.398 25.804,275.160 27.117,274.922 28.583 C 274.683 30.050,274.376 31.702,274.239 32.255 C 274.103 32.807,273.964 33.520,273.931 33.838 C 273.899 34.156,273.827 34.529,273.772 34.667 C 273.691 34.868,273.150 37.904,272.925 39.417 C 272.898 39.600,272.861 39.750,272.842 39.750 C 272.776 39.750,272.678 40.275,272.249 42.917 C 272.011 44.383,271.772 45.696,271.718 45.833 C 271.664 45.971,271.602 46.196,271.579 46.333 C 271.556 46.471,271.382 47.371,271.193 48.333 C 271.003 49.296,270.732 50.758,270.590 51.583 C 270.448 52.408,270.285 53.308,270.227 53.583 C 270.170 53.858,270.114 54.233,270.103 54.417 C 270.092 54.600,270.039 54.788,269.984 54.833 C 269.930 54.879,269.718 55.967,269.513 57.250 C 269.146 59.554,269.050 60.083,269.000 60.083 C 268.952 60.083,268.848 60.585,268.603 62.000 C 268.468 62.779,268.309 63.679,268.249 64.000 C 267.894 65.915,267.667 67.057,267.426 68.146 C 267.276 68.822,267.198 69.420,267.252 69.475 C 267.430 69.652,267.623 69.150,267.731 68.227 C 267.790 67.729,267.910 67.193,267.997 67.036 C 268.085 66.879,268.270 66.037,268.408 65.167 C 268.882 62.169,269.180 60.583,269.331 60.250 C 269.491 59.900,270.500 53.807,270.500 53.191 C 270.500 52.994,270.562 52.833,270.637 52.833 C 270.712 52.833,270.863 52.252,270.972 51.542 C 271.332 49.189,271.855 46.420,271.987 46.167 C 272.058 46.029,272.369 44.304,272.677 42.333 C 272.986 40.362,273.288 38.712,273.348 38.667 C 273.409 38.621,273.548 38.021,273.656 37.333 C 274.077 34.677,274.536 32.236,274.675 31.917 C 274.830 31.560,275.833 25.576,275.833 25.006 C 275.833 24.820,275.893 24.667,275.965 24.667 C 276.038 24.667,276.229 23.823,276.391 22.792 C 276.841 19.916,277.181 18.109,277.324 17.831 C 277.395 17.692,277.705 16.004,278.011 14.081 C 278.318 12.157,278.617 10.546,278.676 10.500 C 278.735 10.454,278.949 9.329,279.150 8.000 C 279.547 5.385,279.796 4.106,280.011 3.583 C 280.273 2.943,280.366 2.167,280.180 2.167 C 280.081 2.167,280.000 2.242,280.000 2.333 M328.500 35.833 C 328.500 54.350,328.556 69.500,328.625 69.500 C 328.694 69.500,328.731 54.425,328.708 36.000 L 328.665 2.500 338.249 2.500 L 347.833 2.500 347.833 4.510 C 347.833 5.807,347.892 6.483,348.000 6.417 C 348.097 6.357,348.167 5.443,348.167 4.240 L 348.167 2.167 338.333 2.167 L 328.500 2.167 328.500 35.833 M353.904 2.580 C 353.728 2.713,353.658 2.824,353.750 2.825 C 353.998 2.830,354.421 2.532,354.316 2.427 C 354.266 2.378,354.081 2.446,353.904 2.580 M109.113 35.891 C 108.987 66.681,109.000 69.722,109.250 69.472 C 109.296 69.426,109.315 54.320,109.292 35.902 L 109.250 2.417 109.113 35.891 M118.208 2.625 C 122.952 2.650,130.715 2.650,135.458 2.625 C 140.202 2.600,136.321 2.580,126.833 2.580 C 117.346 2.580,113.465 2.600,118.208 2.625 M144.203 9.790 L 144.167 17.163 136.458 17.207 L 128.750 17.250 128.750 23.715 L 128.750 30.180 136.458 30.170 L 144.167 30.160 144.167 36.580 L 144.167 43.000 136.415 43.000 L 128.663 43.000 128.706 49.125 L 128.750 55.250 136.457 55.293 L 144.163 55.337 144.207 62.460 L 144.250 69.583 144.333 62.375 L 144.417 55.167 136.708 55.167 L 129.000 55.167 129.000 49.250 L 129.000 43.333 136.708 43.333 L 144.417 43.333 144.417 36.667 L 144.417 30.000 136.708 30.000 L 129.000 30.000 129.000 23.750 L 129.000 17.500 136.708 17.500 L 144.417 17.500 144.374 11.958 C 144.351 8.910,144.311 5.517,144.285 4.417 C 144.260 3.317,144.223 5.735,144.203 9.790 M151.500 36.000 C 151.500 58.222,151.556 69.500,151.667 69.500 C 151.777 69.500,151.833 58.222,151.833 36.000 C 151.833 13.778,151.777 2.500,151.667 2.500 C 151.556 2.500,151.500 13.778,151.500 36.000 M156.613 2.625 C 159.196 2.651,163.471 2.651,166.113 2.625 C 168.755 2.599,166.642 2.578,161.417 2.578 C 156.192 2.578,154.030 2.599,156.613 2.625 M192.041 35.958 C 192.063 54.360,192.100 63.979,192.124 57.333 C 192.237 25.149,192.238 2.500,192.125 2.500 C 192.056 2.500,192.018 17.556,192.041 35.958 M201.138 2.625 C 205.934 2.650,213.734 2.650,218.471 2.625 C 223.208 2.600,219.283 2.580,209.750 2.580 C 200.217 2.580,196.341 2.600,201.138 2.625 M236.137 2.625 C 238.549 2.651,242.449 2.651,244.803 2.625 C 247.157 2.599,245.183 2.577,240.417 2.578 C 235.650 2.578,233.724 2.599,236.137 2.625 M292.958 2.625 C 297.748 2.650,305.585 2.650,310.375 2.625 C 315.165 2.600,311.246 2.580,301.667 2.580 C 292.087 2.580,288.169 2.600,292.958 2.625 M352.500 3.250 C 352.271 3.381,352.158 3.488,352.250 3.488 C 352.342 3.488,352.604 3.381,352.833 3.250 C 353.063 3.119,353.175 3.012,353.083 3.012 C 352.992 3.012,352.729 3.119,352.500 3.250 M374.167 3.157 C 374.167 3.255,374.350 3.542,374.573 3.793 C 374.797 4.044,375.241 4.543,375.559 4.901 C 376.433 5.884,377.466 8.062,377.878 9.792 C 378.221 11.232,378.500 11.772,378.500 10.997 C 378.500 10.315,377.615 7.353,377.357 7.170 C 377.289 7.122,377.031 6.662,376.782 6.146 C 376.533 5.631,376.068 4.932,375.748 4.593 C 375.428 4.254,375.167 3.912,375.167 3.833 C 375.167 3.754,374.942 3.529,374.667 3.333 C 374.392 3.138,374.167 3.058,374.167 3.157 M231.500 3.490 C 231.500 3.668,231.575 3.860,231.667 3.917 C 231.761 3.975,231.833 3.835,231.833 3.593 C 231.833 3.359,231.758 3.167,231.667 3.167 C 231.575 3.167,231.500 3.312,231.500 3.490 M351.338 3.827 C 351.203 3.912,351.134 4.023,351.184 4.073 C 351.234 4.122,351.419 4.054,351.596 3.920 C 351.947 3.654,351.733 3.577,351.338 3.827 M231.667 4.740 C 231.667 4.975,231.742 5.167,231.833 5.167 C 231.925 5.167,232.000 5.021,232.000 4.843 C 232.000 4.665,231.925 4.473,231.833 4.417 C 231.739 4.358,231.667 4.498,231.667 4.740 M349.327 5.178 L 348.750 5.688 349.286 5.395 C 349.581 5.233,349.860 5.003,349.906 4.884 C 350.023 4.579,349.977 4.602,349.327 5.178 M263.667 6.667 C 263.667 6.850,263.742 7.000,263.833 7.000 C 263.925 7.000,264.000 6.850,264.000 6.667 C 264.000 6.483,263.925 6.333,263.833 6.333 C 263.742 6.333,263.667 6.483,263.667 6.667 M263.500 7.667 C 263.500 7.850,263.559 8.000,263.631 8.000 C 263.703 8.000,263.774 7.850,263.788 7.667 C 263.801 7.483,263.742 7.333,263.656 7.333 C 263.570 7.333,263.500 7.483,263.500 7.667 M232.500 9.823 C 232.500 10.093,232.559 10.350,232.632 10.395 C 232.704 10.440,232.734 10.219,232.697 9.905 C 232.615 9.205,232.500 9.157,232.500 9.823 M232.833 11.823 C 232.833 12.012,232.908 12.167,233.000 12.167 C 233.092 12.167,233.167 12.059,233.167 11.927 C 233.167 11.794,233.092 11.640,233.000 11.583 C 232.908 11.527,232.833 11.635,232.833 11.823 M262.434 13.518 C 262.245 14.107,262.167 15.000,262.303 15.000 C 262.463 15.000,262.724 13.502,262.588 13.366 C 262.544 13.322,262.474 13.390,262.434 13.518 M261.838 16.908 C 261.835 17.267,261.883 17.350,262.017 17.216 C 262.149 17.084,262.151 16.945,262.022 16.724 C 261.866 16.455,261.843 16.477,261.838 16.908 M353.000 17.177 C 350.691 17.519,348.775 19.222,348.085 21.547 C 347.778 22.579,347.695 69.500,348.000 69.500 C 348.110 69.500,348.167 61.596,348.169 46.125 C 348.171 21.447,348.155 21.982,348.913 20.500 C 350.674 17.057,356.041 16.245,357.834 19.151 C 358.262 19.844,358.661 20.112,358.322 19.478 C 357.386 17.729,355.315 16.834,353.000 17.177 M303.833 23.663 L 303.833 30.160 311.583 30.205 C 315.846 30.230,319.333 30.194,319.333 30.125 C 319.333 30.056,315.921 30.000,311.750 30.000 L 304.167 30.000 304.167 23.750 L 304.167 17.500 311.750 17.500 C 316.694 17.500,319.333 17.442,319.333 17.333 C 319.333 17.225,316.639 17.167,311.583 17.167 L 303.833 17.167 303.833 23.663 M234.005 19.425 C 234.010 19.856,234.032 19.879,234.189 19.609 C 234.317 19.388,234.316 19.249,234.184 19.117 C 234.050 18.983,234.001 19.066,234.005 19.425 M358.333 20.157 C 358.333 20.243,358.408 20.360,358.500 20.417 C 358.592 20.473,358.667 20.678,358.667 20.871 C 358.667 21.064,358.711 21.178,358.766 21.123 C 358.911 20.978,358.667 20.000,358.487 20.000 C 358.402 20.000,358.333 20.071,358.333 20.157 M234.167 20.750 C 234.167 20.979,234.242 21.167,234.333 21.167 C 234.425 21.167,234.500 20.979,234.500 20.750 C 234.500 20.521,234.425 20.333,234.333 20.333 C 234.242 20.333,234.167 20.521,234.167 20.750 M261.000 21.167 C 261.000 21.350,261.075 21.500,261.167 21.500 C 261.258 21.500,261.333 21.350,261.333 21.167 C 261.333 20.983,261.258 20.833,261.167 20.833 C 261.075 20.833,261.000 20.983,261.000 21.167 M358.914 45.417 C 358.914 58.708,358.934 64.121,358.958 57.445 C 358.982 50.769,358.982 39.894,358.958 33.279 C 358.934 26.663,358.914 32.125,358.914 45.417 M234.333 21.917 C 234.333 22.146,234.408 22.333,234.500 22.333 C 234.592 22.333,234.667 22.146,234.667 21.917 C 234.667 21.688,234.592 21.500,234.500 21.500 C 234.408 21.500,234.333 21.688,234.333 21.917 M260.922 22.049 C 260.851 22.213,260.839 22.394,260.896 22.452 C 261.065 22.621,261.202 22.383,261.124 22.055 C 261.055 21.764,261.046 21.763,260.922 22.049 M234.705 23.167 C 234.705 23.488,234.740 23.619,234.782 23.458 C 234.823 23.298,234.823 23.035,234.782 22.875 C 234.740 22.715,234.705 22.846,234.705 23.167 M40.493 23.770 C 40.084 24.194,39.830 24.513,39.927 24.479 C 40.109 24.415,41.426 23.000,41.304 23.000 C 41.267 23.000,40.902 23.347,40.493 23.770 M235.205 26.833 C 235.205 27.154,235.240 27.285,235.282 27.125 C 235.323 26.965,235.323 26.702,235.282 26.542 C 235.240 26.381,235.205 26.512,235.205 26.833 M259.792 27.929 C 259.723 27.998,259.667 28.246,259.667 28.478 C 259.667 28.781,259.718 28.849,259.847 28.719 C 259.947 28.620,260.003 28.373,259.972 28.170 C 259.942 27.967,259.860 27.859,259.792 27.929 M235.500 28.972 C 235.500 29.171,235.568 29.333,235.652 29.333 C 235.821 29.333,235.796 28.907,235.616 28.727 C 235.552 28.663,235.500 28.774,235.500 28.972 M259.500 29.250 C 259.500 29.387,259.575 29.500,259.667 29.500 C 259.758 29.500,259.833 29.387,259.833 29.250 C 259.833 29.113,259.758 29.000,259.667 29.000 C 259.575 29.000,259.500 29.113,259.500 29.250 M235.667 30.139 C 235.667 30.337,235.735 30.500,235.819 30.500 C 235.988 30.500,235.963 30.074,235.783 29.894 C 235.719 29.830,235.667 29.940,235.667 30.139 M171.372 35.208 C 171.348 35.277,171.328 39.815,171.327 45.292 L 171.325 55.250 179.288 55.293 L 187.250 55.336 187.205 62.418 C 187.174 67.203,187.215 69.500,187.332 69.500 C 187.448 69.500,187.489 67.189,187.460 62.375 L 187.417 55.250 179.460 55.207 L 171.503 55.163 171.458 45.123 C 171.434 39.601,171.395 35.140,171.372 35.208 M378.333 52.333 C 378.333 67.481,378.363 69.500,378.583 69.500 C 378.804 69.500,378.833 67.481,378.833 52.333 C 378.833 37.185,378.804 35.167,378.583 35.167 C 378.363 35.167,378.333 37.185,378.333 52.333 M258.336 35.708 C 258.338 36.012,258.369 36.035,258.500 35.833 C 258.709 35.510,258.709 35.333,258.500 35.333 C 258.408 35.333,258.334 35.502,258.336 35.708 M236.667 36.611 C 236.667 36.856,236.718 37.004,236.781 36.941 C 236.949 36.773,236.968 36.167,236.805 36.167 C 236.729 36.167,236.667 36.367,236.667 36.611 M258.167 36.750 C 258.167 36.887,258.242 37.000,258.333 37.000 C 258.425 37.000,258.500 36.887,258.500 36.750 C 258.500 36.612,258.425 36.500,258.333 36.500 C 258.242 36.500,258.167 36.612,258.167 36.750 M236.833 37.823 C 236.833 38.001,236.908 38.193,237.000 38.250 C 237.095 38.308,237.167 38.168,237.167 37.927 C 237.167 37.692,237.092 37.500,237.000 37.500 C 236.908 37.500,236.833 37.646,236.833 37.823 M237.000 38.990 C 237.000 39.271,237.075 39.500,237.167 39.500 C 237.258 39.500,237.333 39.317,237.333 39.093 C 237.333 38.869,237.258 38.640,237.167 38.583 C 237.069 38.523,237.000 38.693,237.000 38.990 M257.125 42.429 C 257.056 42.499,257.000 42.708,257.000 42.894 C 257.000 43.140,257.050 43.183,257.182 43.051 C 257.283 42.951,257.339 42.742,257.307 42.586 C 257.276 42.431,257.194 42.360,257.125 42.429 M303.833 49.167 L 303.833 55.333 311.625 55.293 L 319.417 55.253 311.792 55.208 L 304.167 55.163 304.167 49.248 L 304.167 43.333 311.750 43.333 C 316.694 43.333,319.333 43.275,319.333 43.167 C 319.333 43.058,316.639 43.000,311.583 43.000 L 303.833 43.000 303.833 49.167 M256.833 43.750 C 256.833 43.998,256.905 44.142,257.000 44.083 C 257.092 44.027,257.167 43.877,257.167 43.750 C 257.167 43.623,257.092 43.473,257.000 43.417 C 256.905 43.358,256.833 43.502,256.833 43.750 M238.003 45.347 C 238.004 45.569,238.079 45.862,238.169 46.000 C 238.284 46.176,238.301 46.077,238.226 45.667 C 238.094 44.948,237.999 44.812,238.003 45.347 M30.500 48.760 C 30.500 49.002,30.572 49.142,30.667 49.083 C 30.758 49.027,30.833 48.835,30.833 48.657 C 30.833 48.479,30.758 48.333,30.667 48.333 C 30.575 48.333,30.500 48.525,30.500 48.760 M13.111 49.944 C 12.938 50.117,12.980 50.667,13.167 50.667 C 13.258 50.667,13.333 50.479,13.333 50.250 C 13.333 49.814,13.295 49.761,13.111 49.944 M239.167 52.407 C 239.167 52.918,239.262 52.959,239.382 52.500 C 239.430 52.317,239.401 52.125,239.318 52.074 C 239.235 52.022,239.167 52.172,239.167 52.407 M390.792 52.455 C 391.181 52.490,391.819 52.490,392.208 52.455 C 392.598 52.420,392.279 52.392,391.500 52.392 C 390.721 52.392,390.402 52.420,390.792 52.455 M394.667 53.009 C 394.804 53.103,395.254 53.356,395.667 53.572 C 396.079 53.788,396.560 54.122,396.734 54.315 C 396.909 54.509,397.120 54.667,397.204 54.667 C 397.369 54.667,397.649 54.939,397.917 55.359 C 398.008 55.502,398.224 55.819,398.395 56.061 C 398.567 56.304,398.795 56.760,398.903 57.074 C 399.046 57.488,399.161 57.606,399.325 57.505 C 399.853 57.179,397.425 54.197,396.185 53.648 C 395.900 53.522,395.667 53.369,395.667 53.309 C 395.667 53.249,395.430 53.117,395.142 53.016 C 394.491 52.789,394.342 52.787,394.667 53.009 M239.333 53.760 C 239.333 53.994,239.404 54.143,239.489 54.090 C 239.675 53.975,239.654 53.333,239.465 53.333 C 239.392 53.333,239.333 53.525,239.333 53.760 M385.574 54.583 C 385.138 54.996,384.848 55.330,384.932 55.327 C 385.144 55.317,386.736 53.833,386.534 53.833 C 386.443 53.833,386.011 54.171,385.574 54.583 M389.500 54.327 C 385.271 55.784,383.398 59.958,385.211 63.885 C 385.715 64.978,386.235 65.594,387.356 66.426 C 388.434 67.227,388.504 67.142,387.500 66.250 C 387.036 65.837,386.601 65.500,386.534 65.500 C 386.467 65.500,386.338 65.355,386.248 65.177 C 386.157 65.000,385.841 64.390,385.544 63.822 C 384.780 62.359,384.628 58.500,385.334 58.500 C 385.405 58.500,385.582 58.205,385.726 57.845 C 386.049 57.038,387.534 55.567,388.375 55.221 C 388.719 55.079,389.000 54.905,389.000 54.834 C 389.000 54.763,389.494 54.611,390.098 54.497 C 392.511 54.042,394.609 54.736,396.362 56.570 C 397.425 57.681,397.699 57.670,396.704 56.556 C 395.669 55.398,393.273 53.979,392.822 54.257 C 392.737 54.310,392.667 54.274,392.667 54.177 C 392.667 53.878,390.503 53.981,389.500 54.327 M239.503 55.125 C 239.505 55.482,239.541 55.528,239.667 55.333 C 239.877 55.007,239.877 54.667,239.667 54.667 C 239.575 54.667,239.501 54.873,239.503 55.125 M239.667 56.157 C 239.667 56.437,239.742 56.667,239.833 56.667 C 239.925 56.667,240.000 56.484,240.000 56.260 C 240.000 56.036,239.925 55.807,239.833 55.750 C 239.736 55.690,239.667 55.859,239.667 56.157 M388.000 60.750 L 388.000 65.333 388.833 65.333 L 389.667 65.333 389.667 63.333 L 389.667 61.333 390.337 61.333 C 390.768 61.333,391.247 61.485,391.681 61.759 C 392.319 62.162,392.344 62.165,392.164 61.828 C 391.896 61.328,390.943 60.974,390.027 61.033 L 389.250 61.083 389.203 63.042 L 389.156 65.000 388.661 65.000 L 388.167 65.000 388.167 60.671 L 388.167 56.342 390.542 56.291 L 392.917 56.240 390.458 56.203 L 388.000 56.167 388.000 60.750 M394.502 56.967 C 395.180 57.884,395.202 59.434,394.548 60.193 C 394.331 60.445,393.970 60.622,393.108 60.902 C 392.844 60.988,392.933 61.146,393.733 62.011 C 394.247 62.565,394.667 63.116,394.667 63.235 C 394.667 63.354,394.848 63.647,395.070 63.887 C 395.292 64.127,395.523 64.475,395.582 64.661 C 395.761 65.226,394.470 65.144,394.012 64.561 C 393.593 64.028,393.561 64.186,393.953 64.849 C 394.287 65.415,396.167 65.614,396.167 65.083 C 396.167 64.946,396.110 64.833,396.042 64.833 C 395.973 64.833,395.697 64.413,395.429 63.900 C 395.161 63.387,394.843 62.929,394.721 62.882 C 394.599 62.836,394.500 62.707,394.500 62.597 C 394.500 62.486,394.275 62.180,394.000 61.917 C 393.361 61.304,393.366 61.278,394.191 60.906 C 395.686 60.232,395.953 57.749,394.633 56.809 L 394.110 56.437 394.502 56.967 M389.167 58.667 C 389.167 59.889,389.213 60.167,389.417 60.167 C 389.619 60.167,389.667 59.898,389.667 58.750 L 389.667 57.333 391.083 57.333 C 391.917 57.333,392.500 57.402,392.500 57.500 C 392.500 57.592,392.650 57.667,392.833 57.667 C 393.017 57.667,393.317 57.817,393.500 58.000 C 393.877 58.377,393.940 58.237,393.597 57.785 C 393.262 57.344,392.435 57.167,390.709 57.167 L 389.167 57.167 389.167 58.667 M399.456 57.874 C 399.397 58.029,399.413 58.196,399.493 58.246 C 399.572 58.295,399.695 58.653,399.766 59.043 C 399.837 59.432,399.918 59.637,399.946 59.500 C 400.035 59.071,399.578 57.556,399.456 57.874 M382.892 61.083 C 382.892 61.908,382.920 62.267,382.955 61.880 C 382.990 61.493,382.990 60.818,382.956 60.380 C 382.922 59.942,382.893 60.258,382.892 61.083 M392.875 59.784 C 392.669 59.824,392.500 59.926,392.500 60.012 C 392.500 60.255,392.937 60.193,393.167 59.917 C 393.281 59.779,393.346 59.677,393.312 59.689 C 393.278 59.702,393.081 59.745,392.875 59.784 M240.676 62.347 C 240.697 63.208,240.943 64.097,241.076 63.792 C 241.145 63.631,241.144 63.369,241.072 63.208 C 241.001 63.048,240.922 62.739,240.896 62.522 C 240.833 61.984,240.664 61.849,240.676 62.347 M399.640 63.054 C 399.488 63.529,399.419 64.015,399.486 64.136 C 399.561 64.270,399.692 64.004,399.825 63.449 C 400.115 62.242,399.988 61.970,399.640 63.054 M392.757 62.951 C 393.284 63.754,393.791 64.217,393.404 63.542 C 393.234 63.244,393.032 63.000,392.954 63.000 C 392.877 63.000,392.855 62.933,392.906 62.851 C 392.957 62.769,392.877 62.655,392.728 62.598 C 392.492 62.507,392.496 62.552,392.757 62.951 M399.000 64.391 C 399.000 65.908,396.548 68.075,393.667 69.106 C 392.427 69.549,392.887 69.638,394.308 69.229 C 395.835 68.789,396.558 68.360,397.709 67.209 C 399.048 65.871,399.581 64.897,399.234 64.423 C 399.024 64.136,399.000 64.133,399.000 64.391 M396.083 65.699 C 395.350 66.442,394.924 66.946,395.137 66.817 C 395.798 66.419,397.792 64.291,397.460 64.340 C 397.436 64.343,396.817 64.955,396.083 65.699 M383.566 64.764 C 383.621 64.909,383.667 65.059,383.667 65.097 C 383.667 65.135,383.735 65.167,383.818 65.167 C 383.901 65.167,383.930 65.017,383.882 64.833 C 383.834 64.650,383.720 64.500,383.629 64.500 C 383.539 64.500,383.510 64.619,383.566 64.764 M384.004 65.458 C 384.006 65.527,384.160 65.771,384.347 66.000 L 384.687 66.417 384.422 65.875 C 384.171 65.360,383.996 65.185,384.004 65.458 M384.833 66.644 C 384.833 67.217,387.324 68.872,388.743 69.241 C 390.196 69.620,390.413 69.551,389.167 69.107 C 388.231 68.774,387.105 68.231,385.980 67.570 C 385.811 67.470,385.484 67.185,385.253 66.936 C 385.022 66.687,384.833 66.555,384.833 66.644 M241.667 68.417 C 241.667 68.646,241.695 68.833,241.731 68.833 C 241.766 68.833,241.830 68.646,241.874 68.417 C 241.918 68.188,241.889 68.000,241.810 68.000 C 241.731 68.000,241.667 68.188,241.667 68.417 " stroke="none" fill="#044f3a" fill-rule="evenodd"></path></g></svg>