<svg width="230" height="40" viewBox="0 0 230 40" fill="none" xmlns="http://www.w3.org/2000/svg">
<path d="M157.945 21.2109C157.857 22.4349 157.404 23.3984 156.586 24.1016C155.773 24.8047 154.701 25.1562 153.367 25.1562C151.909 25.1562 150.76 24.6667 149.922 23.6875C149.089 22.7031 148.672 21.3542 148.672 19.6406V18.9453C148.672 17.8516 148.865 16.888 149.25 16.0547C149.635 15.2214 150.185 14.5833 150.898 14.1406C151.617 13.6927 152.451 13.4688 153.398 13.4688C154.711 13.4688 155.768 13.8203 156.57 14.5234C157.372 15.2266 157.836 16.2135 157.961 17.4844H155.617C155.56 16.75 155.354 16.2188 155 15.8906C154.651 15.5573 154.117 15.3906 153.398 15.3906C152.617 15.3906 152.031 15.6719 151.641 16.2344C151.255 16.7917 151.057 17.6589 151.047 18.8359V19.6953C151.047 20.9245 151.232 21.8229 151.602 22.3906C151.977 22.9583 152.565 23.2422 153.367 23.2422C154.091 23.2422 154.63 23.0781 154.984 22.75C155.344 22.4167 155.549 21.9036 155.602 21.2109H157.945ZM164.086 18.6641C163.779 18.6224 163.508 18.6016 163.273 18.6016C162.419 18.6016 161.859 18.8906 161.594 19.4688V25H159.336V16.5469H161.469L161.531 17.5547C161.984 16.7786 162.612 16.3906 163.414 16.3906C163.664 16.3906 163.898 16.4245 164.117 16.4922L164.086 18.6641ZM168.914 25.1562C167.674 25.1562 166.664 24.776 165.883 24.0156C165.107 23.2552 164.719 22.2422 164.719 20.9766V20.7578C164.719 19.9089 164.883 19.151 165.211 18.4844C165.539 17.8125 166.003 17.2969 166.602 16.9375C167.206 16.5729 167.893 16.3906 168.664 16.3906C169.82 16.3906 170.729 16.7552 171.391 17.4844C172.057 18.2135 172.391 19.2474 172.391 20.5859V21.5078H167.008C167.081 22.0599 167.299 22.5026 167.664 22.8359C168.034 23.1693 168.5 23.3359 169.062 23.3359C169.932 23.3359 170.612 23.0208 171.102 22.3906L172.211 23.6328C171.872 24.112 171.414 24.487 170.836 24.7578C170.258 25.0234 169.617 25.1562 168.914 25.1562ZM168.656 18.2188C168.208 18.2188 167.844 18.3698 167.562 18.6719C167.286 18.974 167.109 19.4062 167.031 19.9688H170.172V19.7891C170.161 19.2891 170.026 18.9036 169.766 18.6328C169.505 18.3568 169.135 18.2188 168.656 18.2188ZM173.328 20.7109C173.328 19.3932 173.622 18.3438 174.211 17.5625C174.805 16.7812 175.615 16.3906 176.641 16.3906C177.464 16.3906 178.143 16.6979 178.68 17.3125V13H180.945V25H178.906L178.797 24.1016C178.234 24.8047 177.51 25.1562 176.625 25.1562C175.63 25.1562 174.831 24.7656 174.227 23.9844C173.628 23.1979 173.328 22.1068 173.328 20.7109ZM175.586 20.875C175.586 21.6667 175.724 22.2734 176 22.6953C176.276 23.1172 176.677 23.3281 177.203 23.3281C177.901 23.3281 178.393 23.0339 178.68 22.4453V19.1094C178.398 18.5208 177.911 18.2266 177.219 18.2266C176.13 18.2266 175.586 19.1094 175.586 20.875ZM185.078 25H182.812V16.5469H185.078V25ZM182.68 14.3594C182.68 14.0208 182.792 13.7422 183.016 13.5234C183.245 13.3047 183.555 13.1953 183.945 13.1953C184.331 13.1953 184.638 13.3047 184.867 13.5234C185.096 13.7422 185.211 14.0208 185.211 14.3594C185.211 14.7031 185.094 14.9844 184.859 15.2031C184.63 15.4219 184.326 15.5312 183.945 15.5312C183.565 15.5312 183.258 15.4219 183.023 15.2031C182.794 14.9844 182.68 14.7031 182.68 14.3594ZM189.648 14.4688V16.5469H191.094V18.2031H189.648V22.4219C189.648 22.7344 189.708 22.9583 189.828 23.0938C189.948 23.2292 190.177 23.2969 190.516 23.2969C190.766 23.2969 190.987 23.2786 191.18 23.2422V24.9531C190.737 25.0885 190.281 25.1562 189.812 25.1562C188.229 25.1562 187.422 24.3568 187.391 22.7578V18.2031H186.156V16.5469H187.391V14.4688H189.648ZM205.414 21.2109C205.326 22.4349 204.872 23.3984 204.055 24.1016C203.242 24.8047 202.169 25.1562 200.836 25.1562C199.378 25.1562 198.229 24.6667 197.391 23.6875C196.557 22.7031 196.141 21.3542 196.141 19.6406V18.9453C196.141 17.8516 196.333 16.888 196.719 16.0547C197.104 15.2214 197.654 14.5833 198.367 14.1406C199.086 13.6927 199.919 13.4688 200.867 13.4688C202.18 13.4688 203.237 13.8203 204.039 14.5234C204.841 15.2266 205.305 16.2135 205.43 17.4844H203.086C203.029 16.75 202.823 16.2188 202.469 15.8906C202.12 15.5573 201.586 15.3906 200.867 15.3906C200.086 15.3906 199.5 15.6719 199.109 16.2344C198.724 16.7917 198.526 17.6589 198.516 18.8359V19.6953C198.516 20.9245 198.701 21.8229 199.07 22.3906C199.445 22.9583 200.034 23.2422 200.836 23.2422C201.56 23.2422 202.099 23.0781 202.453 22.75C202.812 22.4167 203.018 21.9036 203.07 21.2109H205.414ZM211.703 25C211.599 24.7969 211.523 24.5443 211.477 24.2422C210.93 24.8516 210.219 25.1562 209.344 25.1562C208.516 25.1562 207.828 24.9167 207.281 24.4375C206.74 23.9583 206.469 23.3542 206.469 22.625C206.469 21.7292 206.799 21.0417 207.461 20.5625C208.128 20.0833 209.089 19.8411 210.344 19.8359H211.383V19.3516C211.383 18.9609 211.281 18.6484 211.078 18.4141C210.88 18.1797 210.565 18.0625 210.133 18.0625C209.753 18.0625 209.453 18.1536 209.234 18.3359C209.021 18.5182 208.914 18.7682 208.914 19.0859H206.656C206.656 18.5964 206.807 18.1432 207.109 17.7266C207.411 17.3099 207.839 16.9844 208.391 16.75C208.943 16.5104 209.562 16.3906 210.25 16.3906C211.292 16.3906 212.117 16.6536 212.727 17.1797C213.341 17.7005 213.648 18.4349 213.648 19.3828V23.0469C213.654 23.849 213.766 24.4557 213.984 24.8672V25H211.703ZM209.836 23.4297C210.169 23.4297 210.477 23.3568 210.758 23.2109C211.039 23.0599 211.247 22.8594 211.383 22.6094V21.1562H210.539C209.409 21.1562 208.807 21.5469 208.734 22.3281L208.727 22.4609C208.727 22.7422 208.826 22.974 209.023 23.1562C209.221 23.3385 209.492 23.4297 209.836 23.4297ZM220.133 18.6641C219.826 18.6224 219.555 18.6016 219.32 18.6016C218.466 18.6016 217.906 18.8906 217.641 19.4688V25H215.383V16.5469H217.516L217.578 17.5547C218.031 16.7786 218.659 16.3906 219.461 16.3906C219.711 16.3906 219.945 16.4245 220.164 16.4922L220.133 18.6641ZM220.719 20.7109C220.719 19.3932 221.013 18.3438 221.602 17.5625C222.195 16.7812 223.005 16.3906 224.031 16.3906C224.854 16.3906 225.534 16.6979 226.07 17.3125V13H228.336V25H226.297L226.188 24.1016C225.625 24.8047 224.901 25.1562 224.016 25.1562C223.021 25.1562 222.221 24.7656 221.617 23.9844C221.018 23.1979 220.719 22.1068 220.719 20.7109ZM222.977 20.875C222.977 21.6667 223.115 22.2734 223.391 22.6953C223.667 23.1172 224.068 23.3281 224.594 23.3281C225.292 23.3281 225.784 23.0339 226.07 22.4453V19.1094C225.789 18.5208 225.302 18.2266 224.609 18.2266C223.521 18.2266 222.977 19.1094 222.977 20.875Z" fill="#6B778C"/>
<g clip-path="url(#clip0)">
<path d="M137.401 39.4577V39.5605H137.497C137.515 39.5608 137.532 39.5563 137.548 39.5474C137.554 39.543 137.559 39.5371 137.563 39.5302C137.566 39.5233 137.568 39.5157 137.567 39.5081C137.568 39.5006 137.566 39.4931 137.563 39.4864C137.559 39.4797 137.554 39.474 137.548 39.4698C137.532 39.4604 137.515 39.4559 137.497 39.4566H137.401V39.4577ZM137.498 39.3849C137.539 39.3824 137.579 39.3942 137.613 39.4183C137.626 39.4293 137.637 39.4432 137.644 39.459C137.651 39.4749 137.654 39.4921 137.653 39.5093C137.654 39.5242 137.651 39.539 137.646 39.5528C137.64 39.5666 137.632 39.5791 137.621 39.5893C137.595 39.6117 137.563 39.6251 137.529 39.6276L137.657 39.7741H137.558L137.44 39.6286H137.402V39.7741H137.319V39.3852H137.499L137.498 39.3849ZM137.472 39.9083C137.515 39.9087 137.558 39.9 137.598 39.8826C137.636 39.8661 137.671 39.8425 137.701 39.813C137.731 39.7835 137.754 39.7486 137.771 39.7101C137.804 39.6286 137.804 39.5371 137.771 39.4556C137.754 39.4173 137.73 39.3824 137.701 39.3528C137.671 39.3233 137.636 39.2997 137.598 39.2831C137.558 39.2667 137.515 39.2585 137.472 39.259C137.428 39.2586 137.384 39.2668 137.343 39.2831C137.304 39.2993 137.268 39.323 137.238 39.3528C137.193 39.3994 137.162 39.4584 137.15 39.5224C137.138 39.5864 137.144 39.6526 137.17 39.7127C137.185 39.7513 137.209 39.7863 137.238 39.8155C137.268 39.8453 137.304 39.869 137.343 39.8852C137.384 39.9025 137.428 39.9113 137.472 39.9109V39.9083ZM137.472 39.1654C137.585 39.1653 137.693 39.2096 137.774 39.2888C137.813 39.3268 137.844 39.3721 137.865 39.4222C137.887 39.4736 137.898 39.5289 137.898 39.5848C137.898 39.6407 137.887 39.696 137.865 39.7474C137.843 39.7972 137.812 39.8424 137.774 39.8808C137.734 39.9186 137.689 39.9491 137.638 39.9708C137.586 39.9932 137.529 40.0045 137.472 40.0042C137.414 40.0046 137.357 39.9933 137.303 39.9708C137.253 39.9496 137.206 39.9191 137.167 39.8808C137.128 39.841 137.098 39.7943 137.077 39.743C137.055 39.6916 137.044 39.6363 137.044 39.5804C137.044 39.5245 137.055 39.4692 137.077 39.4178C137.098 39.3678 137.129 39.3224 137.168 39.2844C137.207 39.2455 137.253 39.2149 137.305 39.1944C137.358 39.172 137.415 39.1606 137.473 39.161L137.472 39.1654ZM98.1094 37.6633C98.1094 36.9216 98.5953 36.3124 99.3894 36.3124C100.148 36.3124 100.66 36.8954 100.66 37.6633C100.66 38.4312 100.148 39.0142 99.3894 39.0142C98.5953 39.0142 98.1094 38.405 98.1094 37.6633V37.6633ZM101.525 37.6633V35.5527H100.608V36.0669C100.317 35.6869 99.8755 35.4486 99.2752 35.4486C98.0927 35.4486 97.1647 36.3761 97.1647 37.6643C97.1647 38.9525 98.0922 39.88 99.2752 39.88C99.8752 39.88 100.317 39.6415 100.608 39.2618V39.7741H101.524V37.6633H101.525ZM132.526 37.6633C132.526 36.9216 133.012 36.3124 133.806 36.3124C134.566 36.3124 135.077 36.8954 135.077 37.6633C135.077 38.4312 134.566 39.0142 133.806 39.0142C133.012 39.0142 132.526 38.405 132.526 37.6633ZM135.943 37.6633V33.8586H135.025V36.0669C134.734 35.6869 134.292 35.4486 133.692 35.4486C132.509 35.4486 131.581 36.3761 131.581 37.6643C131.581 38.9525 132.509 39.88 133.692 39.88C134.292 39.88 134.734 39.6415 135.025 39.2618V39.7741H135.943V37.6633ZM112.912 36.2689C113.504 36.2689 113.883 36.6396 113.98 37.2923H111.791C111.889 36.6831 112.259 36.2689 112.913 36.2689H112.912ZM112.931 35.4463C111.694 35.4463 110.829 36.3461 110.829 37.662C110.829 39.0037 111.729 39.8777 112.992 39.8777C113.628 39.8777 114.21 39.7191 114.722 39.2865L114.272 38.6065C113.919 38.8893 113.468 39.0479 113.045 39.0479C112.454 39.0479 111.915 38.7741 111.783 38.0145H114.916C114.925 37.9003 114.934 37.7852 114.934 37.6618C114.925 36.3463 114.111 35.446 112.93 35.446L112.931 35.4463ZM124.008 37.6618C124.008 36.9201 124.493 36.3108 125.288 36.3108C126.046 36.3108 126.559 36.8939 126.559 37.6618C126.559 38.4296 126.046 39.0127 125.288 39.0127C124.493 39.0127 124.007 38.4034 124.007 37.6618H124.008ZM127.423 37.6618V35.5527H126.506V36.0669C126.214 35.6869 125.774 35.4486 125.174 35.4486C123.991 35.4486 123.063 36.3761 123.063 37.6643C123.063 38.9525 123.991 39.88 125.174 39.88C125.774 39.88 126.214 39.6415 126.506 39.2618V39.7741H127.424V37.6633L127.423 37.6618ZM118.826 37.6618C118.826 38.9417 119.717 39.8775 121.077 39.8775C121.713 39.8775 122.136 39.7361 122.594 39.3744L122.153 38.6327C121.809 38.8803 121.447 39.0127 121.048 39.0127C120.316 39.0037 119.777 38.4741 119.777 37.6618C119.777 36.8494 120.316 36.3201 121.048 36.3108C121.446 36.3108 121.808 36.4432 122.153 36.6908L122.594 35.9491C122.135 35.5874 121.712 35.446 121.077 35.446C119.717 35.446 118.826 36.3815 118.826 37.6618V37.6618ZM130.654 35.446C130.125 35.446 129.78 35.6936 129.542 36.0643V35.5527H128.633V39.7718H129.551V37.4067C129.551 36.7085 129.851 36.3206 130.451 36.3206C130.647 36.3178 130.842 36.3539 131.025 36.4268L131.307 35.562C131.104 35.482 130.839 35.4468 130.654 35.4468L130.654 35.446ZM106.061 35.8882C105.62 35.5972 105.012 35.4468 104.341 35.4468C103.272 35.4468 102.584 35.9592 102.584 36.7975C102.584 37.4854 103.096 37.9098 104.039 38.0422L104.473 38.1039C104.976 38.1746 105.214 38.307 105.214 38.5453C105.214 38.8715 104.879 39.0577 104.252 39.0577C103.616 39.0577 103.158 38.8546 102.848 38.6163L102.417 39.3317C102.92 39.7024 103.556 39.8793 104.244 39.8793C105.463 39.8793 106.169 39.3055 106.169 38.5021C106.169 37.7605 105.613 37.3726 104.695 37.2402L104.262 37.1774C103.865 37.126 103.547 37.0461 103.547 36.7633C103.547 36.4548 103.847 36.2692 104.35 36.2692C104.889 36.2692 105.41 36.4723 105.666 36.6309L106.063 35.8892L106.061 35.8882ZM117.9 35.4476C117.37 35.4476 117.026 35.6951 116.788 36.0658V35.5527H115.879V39.7718H116.797V37.4067C116.797 36.7085 117.097 36.3206 117.696 36.3206C117.893 36.3178 118.088 36.3539 118.27 36.4268L118.553 35.562C118.35 35.482 118.085 35.4468 117.899 35.4468L117.9 35.4476ZM110.07 35.5527H108.57V34.2728H107.643V35.5527H106.787V36.3913H107.643V38.316C107.643 39.2949 108.023 39.878 109.108 39.878C109.506 39.878 109.965 39.7546 110.256 39.5518L109.991 38.7661C109.717 38.9248 109.417 39.0047 109.178 39.0047C108.72 39.0047 108.57 38.7219 108.57 38.2985V36.3921H110.07V35.5527ZM96.3534 39.7728V37.125C96.3534 36.1278 95.7179 35.4568 94.6935 35.4478C94.1549 35.4388 93.5994 35.6065 93.2104 36.1985C92.9194 35.7306 92.4608 35.4478 91.8161 35.4478C91.3655 35.4478 90.9251 35.5802 90.5804 36.0743V35.5527H89.6621V39.7718H90.5876V37.4325C90.5876 36.7 90.9937 36.3108 91.621 36.3108C92.2302 36.3108 92.5385 36.708 92.5385 37.4232V39.7713H93.466V37.4319C93.466 36.6995 93.8894 36.3103 94.4984 36.3103C95.1248 36.3103 95.4238 36.7075 95.4238 37.4227V39.7708L96.3534 39.7728Z" fill="#231F20"/>
<path d="M137.925 25.7382V25.1213H137.764L137.578 25.5447L137.393 25.1213H137.232V25.7382H137.346V25.2735L137.52 25.6745H137.638L137.812 25.2725V25.7382H137.925H137.925ZM136.905 25.7382V25.227H137.111V25.1229H136.585V25.227H136.791V25.7382H136.904H136.905Z" fill="#F79410"/>
<path d="M119.663 28.3843H105.759V3.39716H119.663L119.663 28.3843Z" fill="#FF5F00"/>
<path d="M106.64 15.8906C106.64 10.8219 109.013 6.30678 112.709 3.39702C109.912 1.19124 106.452 -0.00591782 102.889 -0.000654103C94.1136 -0.000654103 87 7.11397 87 15.8906C87 24.6671 94.1136 31.7818 102.889 31.7818C106.452 31.7871 109.912 30.5899 112.709 28.3841C109.014 25.4748 106.64 20.9594 106.64 15.8906Z" fill="#EB001B"/>
<path d="M138.421 15.8912C138.421 24.6678 131.307 31.7825 122.531 31.7825C118.968 31.7877 115.508 30.5906 112.71 28.3848C116.407 25.475 118.78 20.9601 118.78 15.8912C118.78 10.8223 116.407 6.30743 112.71 3.39767C115.508 1.19195 118.968 -0.0051847 122.531 -1.38365e-05C131.307 -1.38365e-05 138.42 7.11463 138.42 15.8912" fill="#F79E1B"/>
</g>
<path d="M33.4063 31.5833H27.1184L31.0483 7.43156H37.3368L33.4063 31.5833ZM21.8286 7.43156L15.8339 24.0433L15.1245 20.4662L15.1252 20.4674L13.0094 9.60615C13.0094 9.60615 12.7536 7.43156 10.0266 7.43156H0.116288L0 7.8405C0 7.8405 3.03059 8.47104 6.57738 10.6011L12.0403 31.5839H18.5919L28.5959 7.43156H21.8286V7.43156ZM71.2865 31.5833H77.0602L72.0262 7.43091H66.9716C64.6374 7.43091 64.0689 9.23079 64.0689 9.23079L54.6909 31.5833H61.2457L62.5565 27.9958H70.55L71.2865 31.5833ZM64.3674 23.04L67.6712 14.0018L69.5299 23.04H64.3674ZM55.1825 13.2395L56.0799 8.05305C56.0799 8.05305 53.3109 7 50.4244 7C47.304 7 39.8939 8.3638 39.8939 14.9955C39.8939 21.235 48.5909 21.3125 48.5909 24.5899C48.5909 27.8672 40.79 27.28 38.2155 25.2133L37.2806 30.6362C37.2806 30.6362 40.0884 32 44.3781 32C48.6691 32 55.1425 29.7782 55.1425 23.7313C55.1425 17.4517 46.3673 16.867 46.3673 14.1369C46.3679 11.406 52.4918 11.7568 55.1825 13.2395V13.2395Z" fill="#2566AF"/>
<path d="M15.1251 20.4667L13.0093 9.60543C13.0093 9.60543 12.7535 7.43085 10.0265 7.43085H0.116287L0 7.83979C0 7.83979 4.76324 8.82695 9.33203 12.5256C13.7005 16.0607 15.1251 20.4667 15.1251 20.4667Z" fill="#E6A540"/>
<defs>
<clipPath id="clip0">
<rect x="87" width="51.4139" height="40" fill="white"/>
</clipPath>
</defs>
</svg>
