<?xml version="1.0" encoding="utf-8"?>
<!-- Generator: Adobe Illustrator 20.1.0, SVG Export Plug-In . SVG Version: 6.00 Build 0)  -->
<svg version="1.1" id="Layer_1" xmlns="http://www.w3.org/2000/svg" xmlns:xlink="http://www.w3.org/1999/xlink" x="0px" y="0px"
	 viewBox="0 0 612 292.4" style="enable-background:new 0 0 612 292.4;" xml:space="preserve">
<style type="text/css">
	.st0{fill:#FDB814;}
	.st1{fill:#C164A7;}
</style>
<path class="st0" d="M184.4,107.8h1.1c8.2,0,14.9,7.3,20,21.8l45.2,92.8c33.3-70.7,51.3-107.5,54.1-110.5c3.7-2.8,7.4-4.2,11.1-4.2
	c10.5,1.9,15.7,7.1,15.7,15.5v0.6c0,2.7-8.6,21.8-25.8,57.5l-43.2,88.7c-4.5,3.4-8.5,5.1-11.8,5.1h-0.5c-8.7,0-15.9-8.3-21.7-24.9
	c-37.2-75.9-56.9-117.2-59.2-123.9v-4C171.2,112.7,176.2,107.8,184.4,107.8z"/>
<g>
	<path class="st0" d="M185.1,275.2h-1.1c-8.2,0-14.9-7.3-20-21.8l-45.2-92.8C85.6,231.2,67.5,268.1,64.8,271
		c-3.7,2.8-7.4,4.2-11.1,4.2c-10.5-1.9-15.7-7.1-15.7-15.5v-0.6c0-2.7,8.6-21.8,25.8-57.5l43.2-88.7c4.5-3.4,8.5-5.1,11.8-5.1h0.5
		c8.7,0,15.9,8.3,21.7,24.9c37.2,75.9,56.9,117.2,59.2,123.9v4C198.3,270.3,193.3,275.2,185.1,275.2z"/>
</g>
<g>
	<path class="st1" d="M490.8,98.9c-1.3,0.1-2.6,0.3-3.8,0.7s-2.2,0.9-3.1,1.6c-0.8,0.7-1.3,1.7-1.3,3c0,1.4,0.6,2.4,1.8,3.1
		c1.2,0.7,2.4,1,3.7,1c1.1,0,2.2-0.2,3.3-0.5c1.1-0.3,2-0.7,2.8-1.3c0.8-0.6,1.5-1.3,2-2.1c0.5-0.9,0.7-1.9,0.7-3.1v-2.4h-2.9
		C493.2,98.7,492.1,98.8,490.8,98.9z"/>
	<path class="st1" d="M449.6,105.8c2.9,0,5.2-0.9,6.8-2.6c1.6-1.7,2.4-4,2.4-6.8c0-2.8-0.8-5.1-2.4-6.8c-1.6-1.7-3.9-2.6-6.8-2.6
		s-5.2,0.9-6.8,2.6c-1.6,1.7-2.4,4-2.4,6.8c0,2.8,0.8,5.1,2.4,6.8C444.4,105,446.7,105.8,449.6,105.8z"/>
	<path class="st1" d="M494.2,8.9c-39.9,0-72.2,32.3-72.2,72.2c0,11.7,2.8,22.7,7.7,32.5V77.9h10.6v4.9h0.2c0.5-0.7,1.1-1.3,1.8-2
		c0.7-0.7,1.6-1.3,2.6-1.9c1-0.6,2.1-1,3.3-1.4c1.2-0.4,2.4-0.5,3.8-0.5c2.8,0,5.3,0.5,7.6,1.4s4.2,2.3,5.8,4
		c1.6,1.7,2.9,3.7,3.7,6.1c0.9,2.3,1.3,4.9,1.3,7.7c0,2.6-0.4,5.1-1.2,7.5c-0.8,2.4-1.9,4.5-3.4,6.3c-1.5,1.8-3.3,3.3-5.4,4.4
		c-2.1,1.1-4.5,1.6-7.2,1.6c-2.4,0-4.7-0.4-6.8-1.1c-2.1-0.7-3.8-2-5.1-3.8h-0.2v19.1c13.2,14.2,32,23.1,52.9,23.1
		c39.9,0,72.2-32.3,72.2-72.2C566.4,41.2,534.1,8.9,494.2,8.9z M507.6,115h-10.6v-4.7h-0.2c-1.3,2-3,3.4-5.1,4.3
		c-2.1,0.9-4.4,1.3-6.8,1.3c-1.8,0-3.4-0.2-5.1-0.7c-1.6-0.5-3-1.2-4.3-2.2c-1.2-1-2.2-2.2-2.9-3.6c-0.7-1.4-1.1-3.1-1.1-5
		c0-2.1,0.4-3.9,1.2-5.4c0.8-1.5,1.9-2.7,3.2-3.7c1.4-1,2.9-1.7,4.7-2.3c1.7-0.5,3.6-0.9,5.4-1.2c1.9-0.3,3.8-0.4,5.6-0.5
		c1.9-0.1,3.6-0.1,5.2-0.1c0-2-0.7-3.7-2.2-4.9c-1.5-1.2-3.2-1.8-5.2-1.8c-1.9,0-3.6,0.4-5.2,1.2c-1.6,0.8-3,1.9-4.2,3.2l-6.2-6.3
		c2.2-2,4.7-3.5,7.6-4.5s5.9-1.5,9-1.5c3.4,0,6.2,0.4,8.4,1.3c2.2,0.8,3.9,2.1,5.2,3.7c1.3,1.6,2.2,3.6,2.7,6
		c0.5,2.4,0.8,5.1,0.8,8.2V115z M532.6,121.1c-0.8,2-1.5,3.7-2.2,5.3c-0.7,1.5-1.6,2.8-2.7,3.9s-2.5,1.8-4.2,2.4
		c-1.7,0.5-3.9,0.8-6.7,0.8c-3,0-5.9-0.5-8.6-1.4l1.5-9.4c1.7,0.8,3.5,1.1,5.4,1.1c1.3,0,2.3-0.1,3.2-0.4c0.8-0.3,1.5-0.7,2-1.2
		c0.5-0.5,1-1.2,1.4-1.9c0.4-0.8,0.7-1.7,1.2-2.7l0.8-2.1l-16.4-37.4h12.5l9.6,24.5h0.2l8.3-24.5h11.9L532.6,121.1z"/>
</g>
<g>
	<path class="st0" d="M455.4,275.2h-1.1c-8.2,0-14.9-7.3-20-21.8l-45.2-92.8c-33.3,70.7-51.3,107.5-54.1,110.5
		c-3.7,2.8-7.4,4.2-11.1,4.2c-10.5-1.9-15.7-7.1-15.7-15.5v-0.6c0-2.7,8.6-21.8,25.8-57.5l43.2-88.7c4.5-3.4,8.5-5.1,11.8-5.1h0.5
		c8.7,0,15.9,8.3,21.7,24.9c37.2,75.9,56.9,117.2,59.2,123.9v4C468.6,270.3,463.6,275.2,455.4,275.2z"/>
</g>
</svg>
