<svg width="168" height="40" viewBox="0 0 168 40" fill="none" xmlns="http://www.w3.org/2000/svg">
<path d="M51.1094 13.625L54.0312 21.875L56.9375 13.625H60.0156V25H57.6641V21.8906L57.8984 16.5234L54.8281 25H53.2188L50.1562 16.5312L50.3906 21.8906V25H48.0469V13.625H51.1094ZM66.8125 25C66.7083 24.7969 66.6328 24.5443 66.5859 24.2422C66.0391 24.8516 65.3281 25.1562 64.4531 25.1562C63.625 25.1562 62.9375 24.9167 62.3906 24.4375C61.849 23.9583 61.5781 23.3542 61.5781 22.625C61.5781 21.7292 61.9089 21.0417 62.5703 20.5625C63.237 20.0833 64.1979 19.8411 65.4531 19.8359H66.4922V19.3516C66.4922 18.9609 66.3906 18.6484 66.1875 18.4141C65.9896 18.1797 65.6745 18.0625 65.2422 18.0625C64.862 18.0625 64.5625 18.1536 64.3438 18.3359C64.1302 18.5182 64.0234 18.7682 64.0234 19.0859H61.7656C61.7656 18.5964 61.9167 18.1432 62.2188 17.7266C62.5208 17.3099 62.9479 16.9844 63.5 16.75C64.0521 16.5104 64.6719 16.3906 65.3594 16.3906C66.401 16.3906 67.2266 16.6536 67.8359 17.1797C68.4505 17.7005 68.7578 18.4349 68.7578 19.3828V23.0469C68.763 23.849 68.875 24.4557 69.0938 24.8672V25H66.8125ZM64.9453 23.4297C65.2786 23.4297 65.5859 23.3568 65.8672 23.2109C66.1484 23.0599 66.3568 22.8594 66.4922 22.6094V21.1562H65.6484C64.5182 21.1562 63.9167 21.5469 63.8438 22.3281L63.8359 22.4609C63.8359 22.7422 63.9349 22.974 64.1328 23.1562C64.3307 23.3385 64.6016 23.4297 64.9453 23.4297ZM72.5703 16.5469L72.6406 17.5234C73.2448 16.7682 74.0547 16.3906 75.0703 16.3906C75.9661 16.3906 76.6328 16.6536 77.0703 17.1797C77.5078 17.7057 77.7318 18.4922 77.7422 19.5391V25H75.4844V19.5938C75.4844 19.1146 75.3802 18.7682 75.1719 18.5547C74.9635 18.3359 74.6172 18.2266 74.1328 18.2266C73.4974 18.2266 73.0208 18.4974 72.7031 19.0391V25H70.4453V16.5469H72.5703ZM84.5234 24.1406C83.9661 24.8177 83.1953 25.1562 82.2109 25.1562C81.3047 25.1562 80.612 24.8958 80.1328 24.375C79.6589 23.8542 79.4167 23.0911 79.4062 22.0859V16.5469H81.6641V22.0078C81.6641 22.888 82.0651 23.3281 82.8672 23.3281C83.6328 23.3281 84.1589 23.0625 84.4453 22.5312V16.5469H86.7109V25H84.5859L84.5234 24.1406ZM93.3125 25C93.2083 24.7969 93.1328 24.5443 93.0859 24.2422C92.5391 24.8516 91.8281 25.1562 90.9531 25.1562C90.125 25.1562 89.4375 24.9167 88.8906 24.4375C88.349 23.9583 88.0781 23.3542 88.0781 22.625C88.0781 21.7292 88.4089 21.0417 89.0703 20.5625C89.737 20.0833 90.6979 19.8411 91.9531 19.8359H92.9922V19.3516C92.9922 18.9609 92.8906 18.6484 92.6875 18.4141C92.4896 18.1797 92.1745 18.0625 91.7422 18.0625C91.362 18.0625 91.0625 18.1536 90.8438 18.3359C90.6302 18.5182 90.5234 18.7682 90.5234 19.0859H88.2656C88.2656 18.5964 88.4167 18.1432 88.7188 17.7266C89.0208 17.3099 89.4479 16.9844 90 16.75C90.5521 16.5104 91.1719 16.3906 91.8594 16.3906C92.901 16.3906 93.7266 16.6536 94.3359 17.1797C94.9505 17.7005 95.2578 18.4349 95.2578 19.3828V23.0469C95.263 23.849 95.375 24.4557 95.5938 24.8672V25H93.3125ZM91.4453 23.4297C91.7786 23.4297 92.0859 23.3568 92.3672 23.2109C92.6484 23.0599 92.8568 22.8594 92.9922 22.6094V21.1562H92.1484C91.0182 21.1562 90.4167 21.5469 90.3438 22.3281L90.3359 22.4609C90.3359 22.7422 90.4349 22.974 90.6328 23.1562C90.8307 23.3385 91.1016 23.4297 91.4453 23.4297ZM99.375 25H97.1094V13H99.375V25ZM107.719 20.9922V25H105.375V13.625H109.812C110.667 13.625 111.417 13.7812 112.062 14.0938C112.714 14.4062 113.214 14.8516 113.562 15.4297C113.911 16.0026 114.086 16.6562 114.086 17.3906C114.086 18.5052 113.703 19.3854 112.938 20.0312C112.177 20.6719 111.122 20.9922 109.773 20.9922H107.719ZM107.719 19.0938H109.812C110.432 19.0938 110.904 18.9479 111.227 18.6562C111.555 18.3646 111.719 17.9479 111.719 17.4062C111.719 16.849 111.555 16.3984 111.227 16.0547C110.898 15.7109 110.445 15.5339 109.867 15.5234H107.719V19.0938ZM120.359 25C120.255 24.7969 120.18 24.5443 120.133 24.2422C119.586 24.8516 118.875 25.1562 118 25.1562C117.172 25.1562 116.484 24.9167 115.938 24.4375C115.396 23.9583 115.125 23.3542 115.125 22.625C115.125 21.7292 115.456 21.0417 116.117 20.5625C116.784 20.0833 117.745 19.8411 119 19.8359H120.039V19.3516C120.039 18.9609 119.938 18.6484 119.734 18.4141C119.536 18.1797 119.221 18.0625 118.789 18.0625C118.409 18.0625 118.109 18.1536 117.891 18.3359C117.677 18.5182 117.57 18.7682 117.57 19.0859H115.312C115.312 18.5964 115.464 18.1432 115.766 17.7266C116.068 17.3099 116.495 16.9844 117.047 16.75C117.599 16.5104 118.219 16.3906 118.906 16.3906C119.948 16.3906 120.773 16.6536 121.383 17.1797C121.997 17.7005 122.305 18.4349 122.305 19.3828V23.0469C122.31 23.849 122.422 24.4557 122.641 24.8672V25H120.359ZM118.492 23.4297C118.826 23.4297 119.133 23.3568 119.414 23.2109C119.695 23.0599 119.904 22.8594 120.039 22.6094V21.1562H119.195C118.065 21.1562 117.464 21.5469 117.391 22.3281L117.383 22.4609C117.383 22.7422 117.482 22.974 117.68 23.1562C117.878 23.3385 118.148 23.4297 118.492 23.4297ZM127.07 21.8047L128.633 16.5469H131.055L127.656 26.3125L127.469 26.7578C126.964 27.862 126.13 28.4141 124.969 28.4141C124.641 28.4141 124.307 28.3646 123.969 28.2656V26.5547L124.312 26.5625C124.74 26.5625 125.057 26.4974 125.266 26.3672C125.479 26.237 125.646 26.0208 125.766 25.7188L126.031 25.0234L123.07 16.5469H125.5L127.07 21.8047ZM134.062 16.5469L134.133 17.4922C134.732 16.7578 135.542 16.3906 136.562 16.3906C137.651 16.3906 138.398 16.8203 138.805 17.6797C139.398 16.8203 140.245 16.3906 141.344 16.3906C142.26 16.3906 142.943 16.6589 143.391 17.1953C143.839 17.7266 144.062 18.5286 144.062 19.6016V25H141.797V19.6094C141.797 19.1302 141.703 18.7812 141.516 18.5625C141.328 18.3385 140.997 18.2266 140.523 18.2266C139.846 18.2266 139.378 18.5495 139.117 19.1953L139.125 25H136.867V19.6172C136.867 19.1276 136.771 18.7734 136.578 18.5547C136.385 18.3359 136.057 18.2266 135.594 18.2266C134.953 18.2266 134.49 18.4922 134.203 19.0234V25H131.945V16.5469H134.062ZM149.695 25.1562C148.456 25.1562 147.445 24.776 146.664 24.0156C145.888 23.2552 145.5 22.2422 145.5 20.9766V20.7578C145.5 19.9089 145.664 19.151 145.992 18.4844C146.32 17.8125 146.784 17.2969 147.383 16.9375C147.987 16.5729 148.674 16.3906 149.445 16.3906C150.602 16.3906 151.51 16.7552 152.172 17.4844C152.839 18.2135 153.172 19.2474 153.172 20.5859V21.5078H147.789C147.862 22.0599 148.081 22.5026 148.445 22.8359C148.815 23.1693 149.281 23.3359 149.844 23.3359C150.714 23.3359 151.393 23.0208 151.883 22.3906L152.992 23.6328C152.654 24.112 152.195 24.487 151.617 24.7578C151.039 25.0234 150.398 25.1562 149.695 25.1562ZM149.438 18.2188C148.99 18.2188 148.625 18.3698 148.344 18.6719C148.068 18.974 147.891 19.4062 147.812 19.9688H150.953V19.7891C150.943 19.2891 150.807 18.9036 150.547 18.6328C150.286 18.3568 149.917 18.2188 149.438 18.2188ZM156.539 16.5469L156.609 17.5234C157.214 16.7682 158.023 16.3906 159.039 16.3906C159.935 16.3906 160.602 16.6536 161.039 17.1797C161.477 17.7057 161.701 18.4922 161.711 19.5391V25H159.453V19.5938C159.453 19.1146 159.349 18.7682 159.141 18.5547C158.932 18.3359 158.586 18.2266 158.102 18.2266C157.466 18.2266 156.99 18.4974 156.672 19.0391V25H154.414V16.5469H156.539ZM166.133 14.4688V16.5469H167.578V18.2031H166.133V22.4219C166.133 22.7344 166.193 22.9583 166.312 23.0938C166.432 23.2292 166.661 23.2969 167 23.2969C167.25 23.2969 167.471 23.2786 167.664 23.2422V24.9531C167.221 25.0885 166.766 25.1562 166.297 25.1562C164.714 25.1562 163.906 24.3568 163.875 22.7578V18.2031H162.641V16.5469H163.875V14.4688H166.133Z" fill="#6B778C"/>
<path d="M33.3335 6.66666H6.66683C4.81683 6.66666 3.35016 8.14999 3.35016 9.99999L3.3335 30C3.3335 31.85 4.81683 33.3333 6.66683 33.3333H33.3335C35.1835 33.3333 36.6668 31.85 36.6668 30V9.99999C36.6668 8.14999 35.1835 6.66666 33.3335 6.66666ZM33.3335 30H6.66683V20H33.3335V30ZM33.3335 13.3333H6.66683V9.99999H33.3335V13.3333Z" fill="#6B778C"/>
</svg>
