<svg width="40" height="40" viewBox="0 0 40 40" fill="none" xmlns="http://www.w3.org/2000/svg">
<rect x="4" y="10.25" width="29.5" height="14.2222" rx="3" fill="white" stroke="#6E7DD2" stroke-width="2"/>
<path fill-rule="evenodd" clip-rule="evenodd" d="M9.86111 13.75H32.5V20.9722C32.5 22.3529 31.3807 23.4722 30 23.4722H7.5C6.11929 23.4722 5 22.3529 5 20.9722V18.6111C5 15.9264 7.17639 13.75 9.86111 13.75Z" fill="#ECEFFF"/>
<rect x="7.75" y="16.5" width="29.5" height="14.2222" rx="3" fill="white" stroke="#6E7DD2" stroke-width="2"/>
<path fill-rule="evenodd" clip-rule="evenodd" d="M22.5 27.5C24.5711 27.5 26.25 25.8211 26.25 23.75C26.25 21.6789 24.5711 20 22.5 20C20.4289 20 18.75 21.6789 18.75 23.75C18.75 25.8211 20.4289 27.5 22.5 27.5Z" fill="#6E7DD2"/>
</svg>
