<svg width="40" height="40" viewBox="0 0 40 40" fill="none" xmlns="http://www.w3.org/2000/svg">
<path fill-rule="evenodd" clip-rule="evenodd" d="M5 7.28764V31.8562L8.34412 33.3185V6.25L5 7.28764Z" fill="#ECEFFF"/>
<rect x="5" y="6.25" width="17.5" height="27.5" rx="3" stroke="#6E7DD2" stroke-width="2"/>
<path d="M11.9565 31.25C11.2662 31.25 10.7065 30.6904 10.7065 30C10.7065 29.3096 11.2662 28.75 11.9565 28.75H15.5435C16.2339 28.75 16.7935 29.3096 16.7935 30C16.7935 30.6904 16.2339 31.25 15.5435 31.25H11.9565Z" fill="#6E7DD2"/>
<path d="M11.25 6.5H10.25V7.5C10.25 8.74264 11.2574 9.75 12.5 9.75H15C16.2426 9.75 17.25 8.74264 17.25 7.5V6.5H16.25H11.25Z" stroke="#6E7DD2" stroke-width="2"/>
<path fill-rule="evenodd" clip-rule="evenodd" d="M13.12 17.08L13.15 16.25H14.42L14.39 17.05C14.6567 17.0633 14.9067 17.085 15.14 17.115C15.3733 17.145 15.59 17.1767 15.79 17.21L15.5 18.76H14C13.7667 18.76 13.6117 18.7967 13.535 18.87C13.4583 18.9433 13.4167 19.0833 13.41 19.29L14.04 19.36C14.42 19.4 14.74 19.47 15 19.57C15.26 19.67 15.4683 19.7967 15.625 19.95C15.7817 20.1033 15.8933 20.28 15.96 20.48C16.0267 20.68 16.06 20.9 16.06 21.14C16.06 21.5 16.0283 21.8167 15.965 22.09C15.9017 22.3633 15.7967 22.5933 15.65 22.78C15.5033 22.9667 15.3067 23.1133 15.06 23.22C14.8133 23.3267 14.5067 23.3933 14.14 23.42L14.11 24.43H12.82L12.86 23.42C12.2267 23.3667 11.69 23.2867 11.25 23.18L11.54 21.59C12.08 21.7367 12.66 21.81 13.28 21.81C13.4067 21.81 13.5283 21.8067 13.645 21.8C13.7617 21.7933 13.8767 21.7833 13.99 21.77V21.35L13.37 21.28C12.97 21.24 12.6433 21.1633 12.39 21.05C12.1367 20.9367 11.9383 20.7917 11.795 20.615C11.6517 20.4383 11.5533 20.235 11.5 20.005C11.4467 19.775 11.42 19.5233 11.42 19.25C11.42 18.89 11.4583 18.5817 11.535 18.325C11.6117 18.0683 11.7217 17.8533 11.865 17.68C12.0083 17.5067 12.1867 17.3733 12.4 17.28C12.6133 17.1867 12.8533 17.12 13.12 17.08Z" fill="#6E7DD2"/>
<path fill-rule="evenodd" clip-rule="evenodd" d="M28.3118 15.2578C28.7848 14.8162 29.5314 14.8484 29.9424 15.3482C30.1269 15.5727 30.2962 15.789 30.3849 15.9283C30.7948 16.5727 31.1022 17.2691 31.3069 18.0174C31.6657 19.3519 31.6657 20.6799 31.3069 22.0016C31.0872 22.8047 30.7493 23.5457 30.2933 24.2247C30.2035 24.3583 30.0745 24.5226 29.9359 24.6895C29.5303 25.1774 28.7994 25.1974 28.3356 24.7644C27.873 24.3325 27.8544 23.6148 28.2368 23.1105C28.3261 22.9928 28.4058 22.8795 28.4633 22.7829C28.7134 22.3627 28.9039 21.9116 29.0347 21.4297C29.2872 20.4766 29.2872 19.5234 29.0347 18.5703C28.9033 18.0862 28.7117 17.6332 28.4599 17.2113C28.4138 17.1341 28.321 17.0096 28.2106 16.8695C27.8269 16.3826 27.8587 15.6809 28.3118 15.2578ZM31.6239 12.0716C32.0942 11.6218 32.8436 11.6491 33.2706 12.1401C33.6101 12.5305 33.9615 12.9459 34.1034 13.1505C34.5812 13.8394 34.9845 14.5721 35.3132 15.3486C35.9377 16.8482 36.25 18.405 36.25 20.0191C36.25 21.6331 35.9377 23.1835 35.3132 24.6705C34.8569 25.7483 34.2569 26.7387 33.5133 27.6417C33.4467 27.7226 33.3626 27.8184 33.2713 27.9193C32.8451 28.3904 32.1144 28.3976 31.6553 27.9584C31.1887 27.5122 31.1799 26.7754 31.6039 26.2885C31.7002 26.178 31.7885 26.0725 31.857 25.9834C32.3701 25.3159 32.7913 24.5923 33.1207 23.8126C33.639 22.5926 33.8981 21.3217 33.8981 20C33.8981 18.6783 33.639 17.4074 33.1207 16.1874C32.8341 15.5089 32.478 14.8729 32.0522 14.2795C31.9687 14.1631 31.7732 13.9333 31.5613 13.6916C31.1479 13.2199 31.1706 12.5051 31.6239 12.0716Z" fill="#6E7DD2"/>
</svg>
